<svg width="120" height="120" viewBox="0 0 120 120" fill="none" xmlns="http://www.w3.org/2000/svg">
<g id="digital marketing">
<g id="XMLID_2_">
<g id="Group">
<path id="Vector" d="M45.6141 104.242V46.4166C45.6141 43.247 47.5058 39.5689 49.8366 38.1963L85.8499 17.0147C88.1845 15.6459 90.0724 17.1026 90.0724 20.2684V81.6836C90.0724 84.8532 88.1845 88.5313 85.8499 89.9039L49.8366 111.086C47.5058 112.454 45.6141 111.001 45.6141 107.832V104.242ZM74.132 55.3213C75.8135 52.4079 76.8569 49.1045 76.8569 46.126C76.8569 40.2686 72.8221 37.8981 67.8452 40.823C62.8682 43.7517 58.8334 50.8709 58.8334 56.7245C58.8334 59.7029 59.8768 61.779 61.5583 62.7158C63.1835 63.6219 65.398 63.4613 67.8452 62.0237C70.2886 60.5861 72.5068 58.1392 74.132 55.3213Z" fill="white"/>
<path id="Vector_2" d="M83.4415 18.4322L49.8378 38.1954C47.507 39.568 45.6153 43.2461 45.6153 46.4157V55.4351C44.6432 55.8671 43.5172 56.1959 42.2711 56.3947C40.5783 56.6624 38.8706 56.6471 37.2904 56.4024V41.8773C37.2904 38.96 39.032 35.5725 41.1789 34.307L74.3546 14.7962C75.3305 14.2227 76.2201 14.1844 76.8994 14.5859L83.4415 18.4322Z" fill="#D7DCE0"/>
<path id="Vector_3" d="M78.339 13.3669V15.4354L76.8977 14.5866C76.2183 14.1851 75.3288 14.2234 74.3529 14.7969L41.1772 34.3077C39.0303 35.5732 37.2887 38.9607 37.2887 41.878V56.4031C36.0539 56.2157 34.8941 55.8869 33.8807 55.4358V39.5151C33.8807 36.3494 35.7724 32.6674 38.1032 31.2948L74.1165 10.117C76.451 8.74443 78.339 10.2011 78.339 13.3669Z" fill="#3A3A3A"/>
<path id="Vector_4" d="M69.0983 52.1322C69.6275 51.3675 69.969 50.4346 69.969 49.6087C69.969 48.2285 69.0157 47.6703 67.8447 48.3623C66.6699 49.0505 65.7203 50.729 65.7203 52.1092C65.7203 52.9351 66.0618 53.4665 66.5873 53.6118V53.6157C65.2811 55.3362 63.0516 58.6205 61.5578 62.7153C59.8763 61.7786 58.8329 59.7025 58.8329 56.7241C58.8329 50.8705 62.8677 43.7513 67.8447 40.8226C72.8216 37.8977 76.8564 40.2682 76.8564 46.1256C76.8564 49.104 75.813 52.4075 74.1315 55.3209C72.6339 52.9848 70.4082 52.3195 69.102 52.136L69.0983 52.1322Z" fill="#F6D84C"/>
<path id="Vector_5" d="M67.8451 53.3602C67.3759 53.6355 66.9405 53.7119 66.5877 53.6125C66.0623 53.4672 65.7207 52.9358 65.7207 52.1099C65.7207 50.7297 66.6703 49.0512 67.8451 48.363C69.0161 47.671 69.9695 48.2292 69.9695 49.6094C69.9695 50.4353 69.6279 51.3682 69.0987 52.1329C68.7496 52.6452 68.3143 53.0811 67.8451 53.3602Z" fill="white"/>
<path id="Vector_6" d="M66.587 53.6111C66.9398 53.7105 67.3752 53.6341 67.8443 53.3588C68.3135 53.0797 68.7489 52.6438 69.0979 52.1315L69.1017 52.1353C70.4079 52.3188 72.6336 52.9841 74.1312 55.3202C72.506 58.138 70.2878 60.585 67.8443 62.0226C65.3972 63.4602 63.1827 63.6208 61.5575 62.7146C63.0513 58.6198 65.2808 55.3355 66.587 53.615V53.6111Z" fill="#3A3A3A"/>
<path id="Vector_7" d="M45.6141 104.241V105.763L44.0077 104.819C44.582 104.658 45.1187 104.463 45.6141 104.241Z" fill="white"/>
<path id="Vector_8" d="M45.6153 94.4797V104.241C45.1199 104.463 44.5831 104.658 44.0089 104.818L38.6341 101.66C37.8121 101.175 37.2904 100.05 37.2904 98.4522V95.4471C38.8706 95.6918 40.5783 95.707 42.2711 95.4394C43.5172 95.2444 44.6432 94.9118 45.6153 94.4797Z" fill="#D7DCE0"/>
<path id="Vector_9" d="M45.6153 84.7231V94.4805C44.6432 94.9125 43.5172 95.2451 42.2711 95.4401C40.5783 95.7078 38.8706 95.6925 37.2904 95.4478V85.6866C38.8706 85.9313 40.5783 85.9466 42.2711 85.679C43.5172 85.4802 44.6432 85.1514 45.6153 84.7231Z" fill="#D7DCE0"/>
<path id="Vector_10" d="M45.6153 74.9583V84.7232C44.6432 85.1514 43.5172 85.4802 42.2711 85.6791C40.5783 85.9467 38.8706 85.9314 37.2904 85.6867V75.9256C38.8706 76.1703 40.5783 76.1856 42.2711 75.9179C43.5172 75.7229 44.6432 75.3903 45.6153 74.9583Z" fill="#D7DCE0"/>
<path id="Vector_11" d="M45.6153 65.1967V74.9578C44.6432 75.3898 43.5172 75.7225 42.2711 75.9175C40.5783 76.1851 38.8706 76.1698 37.2904 75.9251V66.164C38.8706 66.4087 40.5783 66.424 42.2711 66.1563C43.5172 65.9613 44.6432 65.6325 45.6153 65.1967Z" fill="#D7DCE0"/>
<path id="Vector_12" d="M45.6153 55.4364V65.1975C44.6432 65.6334 43.5172 65.9622 42.2711 66.1572C40.5783 66.4249 38.8706 66.4096 37.2904 66.1649V56.4037C38.8706 56.6484 40.5783 56.6637 42.2711 56.3961C43.5172 56.1973 44.6432 55.8684 45.6153 55.4364Z" fill="#D7DCE0"/>
<path id="Vector_13" d="M33.8807 55.4364C34.8941 55.8876 36.0539 56.2164 37.2887 56.4037V66.1649C36.0539 65.9775 34.8941 65.6487 33.8807 65.1975V55.4364Z" fill="#3A3A3A"/>
<path id="Vector_14" d="M33.8807 65.1967C34.8941 65.6478 36.0539 65.9766 37.2887 66.164V75.9251C36.0539 75.7378 34.8941 75.409 33.8807 74.9578V65.1967Z" fill="#3A3A3A"/>
<path id="Vector_15" d="M33.8807 74.9583C34.8941 75.4094 36.0539 75.7382 37.2887 75.9256V85.6867C36.0539 85.4994 34.8941 85.1706 33.8807 84.7194V74.9583Z" fill="#3A3A3A"/>
<path id="Vector_16" d="M33.8807 84.7188C34.8941 85.1699 36.0539 85.4987 37.2887 85.6861V95.4472C36.0539 95.2599 34.8941 94.9272 33.8807 94.4761V84.7188Z" fill="#3A3A3A"/>
<path id="Vector_17" d="M33.8807 95.0833V94.4753C34.8941 94.9265 36.0539 95.2591 37.2887 95.4465V98.4517C37.2887 100.05 37.8104 101.174 38.6324 101.66L40.5128 102.764L38.1032 104.183C37.2925 104.661 36.5305 104.795 35.8887 104.634C34.6839 104.332 33.8807 102.994 33.8807 100.929V95.0833Z" fill="#3A3A3A"/>
</g>
<g id="Group_2">
<path id="Vector_18" d="M40.5128 102.766L38.1032 104.184C37.2925 104.662 36.5305 104.796 35.8887 104.635C34.6839 104.333 33.8807 102.995 33.8807 100.93V39.5151C33.8807 36.3494 35.7724 32.6674 38.1032 31.2948L74.1165 10.117C76.451 8.74443 78.339 10.2011 78.339 13.3669V15.4354" stroke="#3A3A3A" stroke-miterlimit="10" stroke-linecap="round" stroke-linejoin="round"/>
<path id="Vector_19" d="M83.4402 18.4332L85.8499 17.0147C88.1844 15.6459 90.0724 17.1026 90.0724 20.2684V81.6836C90.0724 84.8532 88.1844 88.5313 85.8499 89.9039L49.8366 111.086C47.5058 112.454 45.6141 111.001 45.6141 107.832V46.4166C45.6141 43.247 47.5058 39.5689 49.8366 38.1963L83.4402 18.4332Z" stroke="#3A3A3A" stroke-miterlimit="10" stroke-linecap="round" stroke-linejoin="round"/>
<g id="Group_3">
<path id="Vector_20" d="M74.1314 55.3209C75.8129 52.4075 76.8563 49.1041 76.8563 46.1256C76.8563 40.2682 72.8215 37.8977 67.8445 40.8226C62.8676 43.7513 58.8328 50.8705 58.8328 56.7241C58.8328 59.7025 59.8762 61.7786 61.5577 62.7154C63.1829 63.6215 65.3974 63.4609 67.8445 62.0233C70.288 60.5857 72.5062 58.1387 74.1314 55.3209Z" stroke="#3A3A3A" stroke-miterlimit="10" stroke-linecap="round" stroke-linejoin="round"/>
<path id="Vector_21" d="M69.0987 52.1329C69.6242 51.3644 69.9695 50.4353 69.9695 49.6094C69.9695 48.2292 69.0161 47.671 67.8451 48.363C66.6703 49.0512 65.7207 50.7297 65.7207 52.1099C65.7207 52.9358 66.0623 53.4672 66.5877 53.6125C66.9405 53.7119 67.3759 53.6355 67.8451 53.3602C68.3143 53.0811 68.7496 52.6452 69.0987 52.1329Z" stroke="#3A3A3A" stroke-miterlimit="10" stroke-linecap="round" stroke-linejoin="round"/>
<path id="Vector_22" d="M66.587 53.6157C65.2808 55.3363 63.0513 58.6206 61.5575 62.7154" stroke="#3A3A3A" stroke-miterlimit="10" stroke-linecap="round" stroke-linejoin="round"/>
<path id="Vector_23" d="M69.1028 52.1365C70.409 52.32 72.6347 52.9853 74.1323 55.3214" stroke="#3A3A3A" stroke-miterlimit="10" stroke-linecap="round" stroke-linejoin="round"/>
</g>
<path id="Vector_24" d="M49.4952 70.5219C49.4201 72.2769 47.9713 73.9133 45.6142 74.9571C44.6421 75.3891 43.5161 75.7218 42.27 75.9168C40.5772 76.1844 38.8695 76.1653 37.2893 75.9244C36.0545 75.7332 34.8947 75.4083 33.8813 74.9571C32.2035 74.2115 30.9199 73.1486 30.3344 71.864C29.2759 69.5393 30.8035 67.165 33.8813 65.8" stroke="#3A3A3A" stroke-miterlimit="10" stroke-linecap="round" stroke-linejoin="round"/>
<path id="Vector_25" d="M49.4877 60.8749C49.3601 62.5878 47.9188 64.1669 45.6142 65.1954C44.6421 65.6274 43.5161 65.9601 42.27 66.155C40.5772 66.4227 38.8695 66.4036 37.2893 66.1627C36.0545 65.9754 34.8947 65.6465 33.8813 65.1954C32.2035 64.4498 30.9199 63.3869 30.3344 62.1022C29.2759 59.7776 30.8035 57.4033 33.8813 56.0383" stroke="#3A3A3A" stroke-miterlimit="10" stroke-linecap="round" stroke-linejoin="round"/>
<path id="Vector_26" d="M49.4877 51.1149C49.3601 52.8278 47.9225 54.4107 45.6142 55.4354C44.6421 55.8674 43.5161 56.1962 42.27 56.395C40.5772 56.6627 38.8695 56.6436 37.2893 56.4027C36.0545 56.2115 34.8947 55.8865 33.8813 55.4354C32.2035 54.6898 30.9199 53.6269 30.3344 52.3422C29.2759 50.0176 30.8035 47.6433 33.8813 46.2783" stroke="#3A3A3A" stroke-miterlimit="10" stroke-linecap="round" stroke-linejoin="round"/>
<path id="Vector_27" d="M49.4989 80.1495C49.4952 81.9541 48.0351 83.6517 45.6142 84.7223C44.6421 85.1505 43.5161 85.4793 42.27 85.6781C40.5773 85.9458 38.8695 85.9266 37.2893 85.6858C36.0545 85.4946 34.8947 85.1696 33.8813 84.7184C32.2035 83.9729 30.9199 82.91 30.3344 81.6253C29.2759 79.3007 30.8035 76.9264 33.8813 75.5614" stroke="#3A3A3A" stroke-miterlimit="10" stroke-linecap="round" stroke-linejoin="round"/>
<path id="Vector_28" d="M49.4914 90.0934C49.3976 91.8254 47.9526 93.4427 45.6142 94.4788C44.6421 94.9109 43.5161 95.2435 42.27 95.4385C40.5772 95.7061 38.8695 95.687 37.2893 95.4461C36.0545 95.255 34.8947 94.9262 33.8813 94.475C32.2035 93.7294 30.9199 92.6704 30.3344 91.3857C29.2759 89.0611 30.8035 86.6867 33.8813 85.3218" stroke="#3A3A3A" stroke-miterlimit="10" stroke-linecap="round" stroke-linejoin="round"/>
<path id="Vector_29" d="M49.4952 99.7976C49.4276 101.553 47.9751 103.189 45.6142 104.24C45.1188 104.462 44.5821 104.657 44.0078 104.818C43.4598 104.975 42.8818 105.104 42.27 105.2C40.0368 105.552 37.781 105.418 35.818 104.906C33.2132 104.229 31.1301 102.887 30.3344 101.143C29.2759 98.8188 30.8035 96.4483 33.8813 95.0834" stroke="#3A3A3A" stroke-miterlimit="10" stroke-linecap="round" stroke-linejoin="round"/>
<path id="Vector_30" d="M45.6152 105.762L38.634 101.66C37.812 101.174 37.2903 100.05 37.2903 98.4521V41.8773C37.2903 38.9601 39.0318 35.5725 41.1787 34.307L74.3545 14.7962C75.3304 14.2227 76.2199 14.1844 76.8993 14.5859L83.4414 18.4322" stroke="#3A3A3A" stroke-miterlimit="10" stroke-linecap="round" stroke-linejoin="round"/>
</g>
</g>
</g>
</svg>
