<svg width="195" height="48" viewBox="0 0 195 48" fill="none" xmlns="http://www.w3.org/2000/svg">
<g clip-path="url(#clip0_407_653)">
<path d="M57.6584 33.6854H71.4833V29.5585H62.5721V14.0142H57.6584V33.6854Z" fill="#6D6D6D"/>
<path d="M79.6741 30.9341C77.7031 30.9341 76.676 29.2283 76.676 26.6697C76.676 24.111 77.7031 22.3778 79.6741 22.3778C81.6452 22.3778 82.7001 24.111 82.7001 26.6697C82.7001 29.2283 81.6452 30.9341 79.6741 30.9341ZM79.7019 34.1255C84.2824 34.1255 87.2806 30.9066 87.2806 26.6697C87.2806 22.4328 84.2824 19.2139 79.7019 19.2139C75.1491 19.2139 72.0955 22.4328 72.0955 26.6697C72.0955 30.9066 75.1491 34.1255 79.7019 34.1255Z" fill="#6D6D6D"/>
<path d="M95.2089 38.5551C97.3188 38.5551 99.1787 38.0874 100.428 36.9869C101.566 35.969 102.316 34.4283 102.316 32.3098V19.5992H97.985V21.1124H97.9295C97.0967 19.9294 95.8197 19.1865 93.9319 19.1865C90.4063 19.1865 87.9634 22.1028 87.9634 26.2296C87.9634 30.5491 90.9338 32.9151 94.1263 32.9151C95.8474 32.9151 96.9301 32.2273 97.7629 31.2919H97.874V32.695C97.874 34.4008 97.0689 35.3912 95.1534 35.3912C93.6543 35.3912 92.9048 34.7584 92.6549 34.0156H88.2687C88.7129 36.9594 91.2947 38.5551 95.2089 38.5551ZM95.1812 29.5861C93.4878 29.5861 92.3773 28.2105 92.3773 26.0921C92.3773 23.9461 93.4878 22.5705 95.1812 22.5705C97.0689 22.5705 98.0683 24.1662 98.0683 26.0646C98.0683 28.0455 97.1522 29.5861 95.1812 29.5861Z" fill="#6D6D6D"/>
<path d="M111.221 30.9341C109.25 30.9341 108.222 29.2283 108.222 26.6697C108.222 24.111 109.25 22.3778 111.221 22.3778C113.192 22.3778 114.246 24.111 114.246 26.6697C114.246 29.2283 113.192 30.9341 111.221 30.9341ZM111.248 34.1255C115.829 34.1255 118.826 30.9066 118.826 26.6697C118.826 22.4328 115.829 19.2139 111.248 19.2139C106.696 19.2139 103.642 22.4328 103.642 26.6697C103.642 30.9066 106.696 34.1255 111.248 34.1255Z" fill="#6D6D6D"/>
<path d="M120.148 33.6854H124.673V19.5991H120.148V33.6854ZM120.148 17.6458H124.673V14.0142H120.148V17.6458Z" fill="#6D6D6D"/>
<path d="M126.636 38.335H131.161V32.2273H131.217C132.105 33.4103 133.41 34.1256 135.242 34.1256C138.962 34.1256 141.433 31.2094 141.433 26.6423C141.433 22.4054 139.129 19.1865 135.353 19.1865C133.41 19.1865 132.022 20.0394 131.05 21.305H130.967V19.5992H126.636V38.335ZM134.076 30.6591C132.133 30.6591 131.022 29.0909 131.022 26.8074C131.022 24.5239 132.022 22.7906 133.993 22.7906C135.936 22.7906 136.852 24.3863 136.852 26.8074C136.852 29.201 135.797 30.6591 134.076 30.6591Z" fill="#6D6D6D"/>
<path d="M148.8 34.1256C152.52 34.1256 155.268 32.5299 155.268 29.4486C155.268 25.8445 152.326 25.2117 149.827 24.799C148.023 24.4689 146.412 24.3313 146.412 23.3409C146.412 22.4605 147.273 22.0478 148.383 22.0478C149.633 22.0478 150.493 22.433 150.66 23.6985H154.824C154.602 20.9198 152.437 19.1865 148.411 19.1865C145.052 19.1865 142.276 20.7272 142.276 23.6985C142.276 27 144.913 27.6603 147.384 28.073C149.272 28.4031 150.993 28.5407 150.993 29.8062C150.993 30.7141 150.132 31.2094 148.772 31.2094C147.273 31.2094 146.329 30.5215 146.163 29.1184H141.887C142.026 32.2273 144.636 34.1256 148.8 34.1256Z" fill="#6D6D6D"/>
<path d="M161.415 34.098C163.386 34.098 164.635 33.3277 165.662 31.9521H165.746V33.6854H170.076V19.5991H165.551V27.4676C165.551 29.1459 164.607 30.3014 163.053 30.3014C161.609 30.3014 160.915 29.4485 160.915 27.9078V19.5991H156.418V28.8432C156.418 31.9796 158.139 34.098 161.415 34.098Z" fill="#6D6D6D"/>
<path d="M172.045 33.6855H176.57V25.7895C176.57 24.1112 177.403 22.9282 178.818 22.9282C180.179 22.9282 180.817 23.8086 180.817 25.3217V33.6855H185.342V25.7895C185.342 24.1112 186.147 22.9282 187.591 22.9282C188.951 22.9282 189.589 23.8086 189.589 25.3217V33.6855H194.114V24.5239C194.114 21.36 192.504 19.1865 189.284 19.1865C187.452 19.1865 185.925 19.9569 184.815 21.6626H184.759C184.037 20.1495 182.622 19.1865 180.762 19.1865C178.707 19.1865 177.347 20.1495 176.459 21.6076H176.375V19.5992H172.045V33.6855Z" fill="#6D6D6D"/>
<path d="M30.0508 2.76228L25.5015 1.5542L21.6678 15.7339L18.2066 2.93238L13.6572 4.14046L17.3968 17.9716L8.08231 8.74059L4.75196 12.0411L14.9688 22.1665L2.24536 18.7878L1.02637 23.2964L14.9283 26.988C14.7691 26.3077 14.6849 25.5988 14.6849 24.8704C14.6849 19.7146 18.9022 15.5351 24.1046 15.5351C29.307 15.5351 33.5243 19.7146 33.5243 24.8704C33.5243 25.5941 33.4411 26.2986 33.2839 26.975L45.9182 30.33L47.1371 25.8214L33.1799 22.1151L45.9042 18.7361L44.6851 14.2275L30.7285 17.9337L40.043 8.70269L36.7126 5.40216L26.6375 15.3871L30.0508 2.76228Z" fill="#999999"/>
<path d="M33.2716 27.0278C32.8815 28.6621 32.0581 30.1302 30.9282 31.3064L40.0812 40.3776L43.4115 37.077L33.2716 27.0278Z" fill="#999999"/>
<path d="M30.8356 31.4009C29.6921 32.5583 28.247 33.4221 26.6265 33.8672L29.9571 46.1858L34.5064 44.9777L30.8356 31.4009Z" fill="#999999"/>
<path d="M26.4566 33.9125C25.7048 34.1041 24.9167 34.2059 24.1046 34.2059C23.2345 34.2059 22.392 34.089 21.5921 33.8701L18.2585 46.1999L22.8078 47.408L26.4566 33.9125Z" fill="#999999"/>
<path d="M21.4312 33.8246C19.8354 33.3573 18.416 32.4826 17.2958 31.3218L8.12036 40.4151L11.4507 43.7157L21.4312 33.8246Z" fill="#999999"/>
<path d="M17.2194 31.2413C16.1184 30.0731 15.3165 28.6246 14.9348 27.0156L2.25928 30.3816L3.47826 34.8902L17.2194 31.2413Z" fill="#999999"/>
</g>
<defs>
<clipPath id="clip0_407_653">
<rect width="194.325" height="47" fill="white" transform="translate(0.65918 0.496094)"/>
</clipPath>
</defs>
</svg>
