<svg width="178" height="47" viewBox="0 0 178 47" fill="none" xmlns="http://www.w3.org/2000/svg">
<g clip-path="url(#clip0_407_563)">
<path d="M59.5526 12.3228H55.4827V30.9105H66.7494V27.2684H59.5526V12.3228Z" fill="#6D6D6D"/>
<path d="M67.1382 24.6055C67.1382 28.5742 69.7688 31.2117 73.7394 31.2117C77.6852 31.2117 80.3158 28.5742 80.3158 24.6055C80.3158 20.6367 77.6852 17.9741 73.7394 17.9741C69.7688 17.9741 67.1382 20.6367 67.1382 24.6055ZM70.9847 24.5803C70.9847 22.6965 72.0767 21.4406 73.7394 21.4406C75.3773 21.4406 76.4693 22.6965 76.4693 24.5803C76.4693 26.4894 75.3773 27.7453 73.7394 27.7453C72.0767 27.7453 70.9847 26.4894 70.9847 24.5803Z" fill="#6D6D6D"/>
<path d="M80.9305 24.4049C80.9305 28.1977 83.3626 30.7598 86.812 30.7598C88.4748 30.7598 89.9141 30.157 90.6338 29.1774V30.9106C90.6338 32.6437 89.5667 33.7991 87.6806 33.7991C85.9931 33.7991 84.8267 32.9954 84.7523 31.5637H80.8809C81.2283 35.0049 83.8589 37.3157 87.4573 37.3157C91.7009 37.3157 94.3811 34.5277 94.3811 30.1067V18.3513H90.9316L90.7331 19.6323C90.0382 18.6025 88.574 17.9243 86.8866 17.9243C83.4121 17.9243 80.9305 20.5617 80.9305 24.4049ZM84.8019 24.3044C84.8019 22.4958 85.9931 21.2901 87.5069 21.2901C89.2689 21.2901 90.5594 22.4707 90.5594 24.3044C90.5594 26.1381 89.2937 27.394 87.5317 27.394C86.018 27.394 84.8019 26.1381 84.8019 24.3044Z" fill="#6D6D6D"/>
<path d="M95.4949 24.6055C95.4949 28.5742 98.1255 31.2117 102.096 31.2117C106.042 31.2117 108.672 28.5742 108.672 24.6055C108.672 20.6367 106.042 17.9741 102.096 17.9741C98.1255 17.9741 95.4949 20.6367 95.4949 24.6055ZM99.3415 24.5803C99.3415 22.6965 100.433 21.4406 102.096 21.4406C103.734 21.4406 104.826 22.6965 104.826 24.5803C104.826 26.4894 103.734 27.7453 102.096 27.7453C100.433 27.7453 99.3415 26.4894 99.3415 24.5803Z" fill="#6D6D6D"/>
<path d="M111.968 16.3919C113.159 16.3919 114.127 15.4122 114.127 14.1814C114.127 12.9506 113.159 11.9961 111.968 11.9961C110.751 11.9961 109.784 12.9506 109.784 14.1814C109.784 15.4122 110.751 16.3919 111.968 16.3919ZM110.032 30.9104H113.878V18.3511H110.032V30.9104Z" fill="#6D6D6D"/>
<path d="M116.118 36.9388H119.89V29.6545C120.609 30.609 122.248 31.2621 123.96 31.2621C127.657 31.2621 129.891 28.3986 129.792 24.4298C129.692 20.3857 127.384 17.9492 123.935 17.9492C122.173 17.9492 120.511 18.7279 119.815 19.8834L119.616 18.3511H116.118V36.9388ZM119.964 24.6307C119.964 22.7469 121.205 21.491 122.992 21.491C124.803 21.491 125.945 22.772 125.945 24.6307C125.945 26.4896 124.803 27.7706 122.992 27.7706C121.205 27.7706 119.964 26.5146 119.964 24.6307Z" fill="#6D6D6D"/>
<path d="M130.199 26.9416C130.298 29.4787 132.284 31.2369 135.41 31.2369C138.413 31.2369 140.498 29.6293 140.498 27.0422C140.498 25.1834 139.406 23.9526 137.37 23.4501L135.163 22.8976C134.368 22.6966 133.872 22.4956 133.872 21.8425C133.872 21.1895 134.392 20.7625 135.163 20.7625C136.031 20.7625 136.601 21.3402 136.577 22.1942H140.027C139.927 19.5819 137.967 17.9492 135.237 17.9492C132.482 17.9492 130.423 19.6071 130.423 22.1189C130.423 23.8018 131.341 25.1834 133.797 25.8365L135.981 26.4141C136.626 26.59 136.899 26.8914 136.899 27.3184C136.899 27.9464 136.328 28.3483 135.36 28.3483C134.244 28.3483 133.648 27.8208 133.648 26.9416H130.199Z" fill="#6D6D6D"/>
<path d="M146.347 31.2368C147.862 31.2368 149.375 30.5335 150.144 29.5037L150.393 30.9103H153.991V18.3511H150.169V24.8819C150.169 26.7657 149.624 27.7956 147.862 27.7956C146.496 27.7956 145.603 27.1677 145.603 24.8317V18.3511H141.781V26.2382C141.781 29.2274 143.419 31.2368 146.347 31.2368Z" fill="#6D6D6D"/>
<path d="M160.052 30.9106V24.0532C160.052 21.9432 161.169 21.3404 162.261 21.3404C163.476 21.3404 164.271 22.094 164.271 23.6513V30.9106H168.043V24.0532C168.043 21.9182 169.135 21.3153 170.226 21.3153C171.442 21.3153 172.261 22.0688 172.261 23.6513V30.9106H175.985V22.6968C175.985 19.8333 174.495 17.9243 171.293 17.9243C169.507 17.9243 168.043 18.8034 167.397 20.1598C166.653 18.8034 165.362 17.9243 163.303 17.9243C161.938 17.9243 160.672 18.5522 159.928 19.557L159.779 18.3513H156.205V30.9106H160.052Z" fill="#6D6D6D"/>
<path d="M0.946289 23.4961C0.946289 12.6538 0.946289 7.23263 4.27407 3.86436C7.60185 0.496094 12.9578 0.496094 23.6698 0.496094C34.3818 0.496094 39.7377 0.496094 43.0656 3.86436C46.3933 7.23263 46.3933 12.6538 46.3933 23.4961C46.3933 34.3384 46.3933 39.7595 43.0656 43.1279C39.7377 46.4961 34.3818 46.4961 23.6698 46.4961C12.9578 46.4961 7.60185 46.4961 4.27407 43.1279C0.946289 39.7595 0.946289 34.3384 0.946289 23.4961Z" fill="#6D6D6D"/>
<path d="M28.2144 30.396C28.8419 30.396 29.3621 30.9159 29.2374 31.5384C29.0171 32.6378 28.482 33.6568 27.6867 34.4618C26.6214 35.5402 25.1764 36.146 23.6697 36.146C22.163 36.146 20.7182 35.5402 19.6528 34.4618C18.8574 33.6568 18.3223 32.6378 18.1021 31.5384C17.9774 30.9159 18.4975 30.396 19.125 30.396H28.2144Z" fill="#999999"/>
<path d="M30.603 20.9393C29.9968 21.1036 29.6257 21.7454 29.933 22.2991C30.2565 22.882 30.7039 23.3906 31.2482 23.7854C32.1029 24.4052 33.1434 24.7061 34.1926 24.6364C35.2418 24.5668 36.2347 24.1312 37.002 23.4037C37.7695 22.6762 38.2639 21.7018 38.4011 20.6467C38.5384 19.5916 38.31 18.5209 37.7548 17.6171C37.1995 16.7135 36.3518 16.0326 35.3562 15.6904C34.3606 15.3483 33.2786 15.3662 32.2945 15.7411C31.6678 15.9799 31.1056 16.354 30.6441 16.8322C30.2057 17.2865 30.4001 18.0038 30.9435 18.3213L31.5199 18.6581C32.3964 19.1704 32.2236 20.4997 31.2458 20.7649L30.603 20.9393Z" fill="#999999"/>
<path d="M16.7367 20.9393C17.3429 21.1036 17.714 21.7454 17.4067 22.2991C17.0832 22.882 16.6358 23.3906 16.0916 23.7854C15.237 24.4052 14.1963 24.7061 13.1472 24.6364C12.0979 24.5668 11.1051 24.1312 10.3376 23.4037C9.57024 22.6762 9.07579 21.7018 8.93855 20.6467C8.80131 19.5916 9.02976 18.5209 9.585 17.6171C10.1402 16.7135 10.9879 16.0326 11.9835 15.6904C12.9791 15.3483 14.0612 15.3662 15.0453 15.7411C15.6719 15.9799 16.2342 16.354 16.6957 16.8322C17.1341 17.2865 16.9396 18.0038 16.3962 18.3213L15.8198 18.6581C14.9432 19.1704 15.1162 20.4997 16.0939 20.7649L16.7367 20.9393Z" fill="#999999"/>
</g>
<defs>
<clipPath id="clip0_407_563">
<rect width="176.107" height="46" fill="white" transform="translate(0.946289 0.496094)"/>
</clipPath>
</defs>
</svg>
