<svg width="193" height="47" viewBox="0 0 193 47" fill="none" xmlns="http://www.w3.org/2000/svg">
<g clip-path="url(#clip0_407_623)">
<path d="M55.2444 33.8459H67.937V30.1283H59.1148V12.7695H55.2444V33.8459Z" fill="#6D6D6D"/>
<path d="M75.5645 34.2851C77.1013 34.2851 78.4531 33.9337 79.6199 33.2312C80.7962 32.5189 81.7116 31.5383 82.3662 30.2894C83.0302 29.0306 83.3623 27.5816 83.3623 25.9424C83.3623 24.3128 83.0349 22.8736 82.3804 21.6246C81.7258 20.3659 80.8104 19.3804 79.6341 18.6681C78.4673 17.9558 77.1108 17.5996 75.5645 17.5996C74.0466 17.5996 72.7043 17.9509 71.5375 18.6535C70.3708 19.356 69.4553 20.3366 68.7912 21.5954C68.1272 22.8443 67.7952 24.2933 67.7952 25.9424C67.7952 27.5718 68.1177 29.016 68.7628 30.2747C69.4173 31.5237 70.3281 32.5043 71.4948 33.2166C72.6617 33.9289 74.0182 34.2851 75.5645 34.2851ZM75.5645 30.5675C74.3597 30.5675 73.4443 30.1528 72.8182 29.3234C72.2015 28.4842 71.8933 27.3572 71.8933 25.9424C71.8933 24.5665 72.1873 23.4541 72.7755 22.6052C73.3731 21.7466 74.3028 21.3172 75.5645 21.3172C76.7883 21.3172 77.7084 21.7368 78.325 22.576C78.9511 23.4152 79.2641 24.5372 79.2641 25.9424C79.2641 27.2987 78.9559 28.411 78.3392 29.2795C77.7321 30.1381 76.8072 30.5675 75.5645 30.5675Z" fill="#6D6D6D"/>
<path d="M91.0164 34.2851C91.7374 34.2851 92.4014 34.1972 93.0086 34.0216C93.6252 33.846 94.1848 33.5971 94.6876 33.2751V34.8705C94.7066 35.456 94.5595 35.9438 94.2465 36.3341C93.9429 36.7342 93.5351 37.0319 93.0228 37.227C92.5105 37.4319 91.965 37.5344 91.3864 37.5344C90.8456 37.5344 90.3429 37.4124 89.8781 37.1685C89.4227 36.9246 89.0717 36.5684 88.825 36.1L85.2393 37.8856C85.8274 38.9101 86.6669 39.7347 87.7579 40.3591C88.8488 40.9934 90.0488 41.3105 91.3579 41.3105C92.4868 41.3105 93.5351 41.1544 94.5026 40.8421C95.4702 40.5397 96.2861 40.0762 96.9501 39.4517C97.6236 38.8272 98.0838 38.032 98.3304 37.066C98.4157 36.7245 98.4726 36.3781 98.5011 36.0267C98.539 35.6853 98.558 35.3194 98.558 34.9291V18.0387H95.1714V18.9169C94.6496 18.4973 94.0567 18.1753 93.3927 17.9509C92.7381 17.7167 92.0125 17.5996 91.2156 17.5996C89.7453 17.5996 88.4646 17.9607 87.3737 18.6827C86.2827 19.4048 85.4337 20.3951 84.8266 21.6539C84.2289 22.9028 83.9302 24.3324 83.9302 25.9424C83.9302 27.5231 84.2242 28.9427 84.8124 30.2015C85.41 31.4602 86.24 32.4555 87.3025 33.1874C88.3649 33.9191 89.6029 34.2851 91.0164 34.2851ZM91.6425 30.7431C90.8077 30.7431 90.1247 30.5284 89.5934 30.0991C89.0623 29.6698 88.6685 29.0941 88.4125 28.372C88.1563 27.6401 88.0282 26.8303 88.0282 25.9424C88.0282 25.0641 88.161 24.2641 88.4267 23.542C88.6923 22.8101 89.1002 22.2296 89.6503 21.8002C90.21 21.3611 90.9215 21.1416 91.7848 21.1416C92.9991 21.1416 93.867 21.5856 94.3888 22.4735C94.9106 23.3517 95.1714 24.508 95.1714 25.9424C95.1714 27.3767 94.9058 28.5378 94.3746 29.4257C93.8528 30.304 92.9422 30.7431 91.6425 30.7431Z" fill="#6D6D6D"/>
<path d="M107.751 34.2851C109.288 34.2851 110.64 33.9337 111.806 33.2312C112.982 32.5189 113.898 31.5383 114.552 30.2894C115.216 29.0306 115.548 27.5816 115.548 25.9424C115.548 24.3128 115.222 22.8736 114.567 21.6246C113.913 20.3659 112.997 19.3804 111.821 18.6681C110.654 17.9558 109.297 17.5996 107.751 17.5996C106.233 17.5996 104.891 17.9509 103.724 18.6535C102.557 19.356 101.642 20.3366 100.978 21.5954C100.314 22.8443 99.9817 24.2933 99.9817 25.9424C99.9817 27.5718 100.304 29.016 100.949 30.2747C101.604 31.5237 102.515 32.5043 103.681 33.2166C104.848 33.9289 106.205 34.2851 107.751 34.2851ZM107.751 30.5675C106.546 30.5675 105.631 30.1528 105.005 29.3234C104.388 28.4842 104.08 27.3572 104.08 25.9424C104.08 24.5665 104.374 23.4541 104.962 22.6052C105.56 21.7466 106.489 21.3172 107.751 21.3172C108.975 21.3172 109.895 21.7368 110.512 22.576C111.138 23.4152 111.451 24.5372 111.451 25.9424C111.451 27.2987 111.142 28.411 110.526 29.2795C109.919 30.1381 108.994 30.5675 107.751 30.5675Z" fill="#6D6D6D"/>
<path d="M117.254 15.8432H121.125V12.3306H117.254V15.8432ZM117.254 33.846H121.125V18.0387H117.254V33.846Z" fill="#6D6D6D"/>
<path d="M123.655 40.8715H127.554V33.2751C128.057 33.5971 128.611 33.846 129.218 34.0216C129.836 34.1972 130.504 34.2851 131.225 34.2851C132.639 34.2851 133.877 33.9191 134.939 33.1874C136.002 32.4555 136.827 31.4602 137.415 30.2015C138.013 28.9427 138.311 27.5231 138.311 25.9424C138.311 24.3324 138.008 22.9028 137.401 21.6539C136.803 20.3951 135.959 19.4048 134.868 18.6827C133.777 17.9607 132.497 17.5996 131.026 17.5996C130.229 17.5996 129.499 17.7167 128.835 17.9509C128.18 18.1753 127.592 18.4973 127.071 18.9169V18.0387H123.655V40.8715ZM130.599 30.7431C129.309 30.7431 128.399 30.304 127.867 29.4257C127.336 28.5378 127.071 27.3767 127.071 25.9424C127.071 24.508 127.331 23.3517 127.853 22.4735C128.384 21.5856 129.252 21.1416 130.457 21.1416C131.32 21.1416 132.027 21.3611 132.577 21.8002C133.137 22.2296 133.55 22.8101 133.815 23.542C134.081 24.2641 134.214 25.0641 134.214 25.9424C134.214 26.8303 134.085 27.6401 133.829 28.372C133.573 29.0941 133.18 29.6698 132.649 30.0991C132.118 30.5284 131.434 30.7431 130.599 30.7431Z" fill="#6D6D6D"/>
<path d="M145.324 34.2851C147.334 34.2851 148.909 33.8216 150.047 32.8946C151.186 31.9676 151.755 30.6943 151.755 29.0745C151.755 27.8451 151.385 26.8742 150.646 26.1619C149.914 25.4496 148.672 24.8592 146.917 24.3909C145.722 24.0786 144.83 23.8249 144.241 23.6297C143.663 23.4347 143.279 23.2444 143.089 23.059C142.909 22.8736 142.819 22.6443 142.819 22.3711C142.819 21.9125 143.032 21.5612 143.459 21.3172C143.896 21.0733 144.47 20.9758 145.181 21.0245C146.689 21.1416 147.515 21.8052 147.657 23.0151L151.613 22.2832C151.414 20.8489 150.73 19.7122 149.563 18.873C148.397 18.0241 146.908 17.5996 145.096 17.5996C143.236 17.5996 141.752 18.0485 140.641 18.9461C139.532 19.8438 138.977 21.0538 138.977 22.576C138.977 23.7859 139.361 24.7421 140.129 25.4447C140.897 26.1376 142.221 26.7327 144.099 27.2304C145.21 27.5328 146.025 27.7768 146.547 27.9621C147.078 28.1475 147.42 28.3378 147.571 28.533C147.723 28.7184 147.799 28.9672 147.799 29.2795C147.799 29.7771 147.609 30.1674 147.23 30.4504C146.851 30.7235 146.31 30.8601 145.608 30.8601C144.754 30.8601 144.047 30.6504 143.488 30.2307C142.938 29.8112 142.581 29.2307 142.42 28.4891L138.465 29.1037C138.721 30.7528 139.442 32.0311 140.628 32.9385C141.823 33.8362 143.388 34.2851 145.324 34.2851Z" fill="#6D6D6D"/>
<path d="M158.894 34.3143C160.005 34.3143 160.972 34.124 161.798 33.7434C162.623 33.3629 163.315 32.8555 163.875 32.2213V33.8459H167.29V18.0386H163.391V26.0594C163.391 27.0351 163.281 27.8254 163.063 28.4304C162.856 29.0257 162.585 29.4793 162.253 29.7916C161.921 30.0941 161.565 30.299 161.185 30.4064C160.806 30.5137 160.451 30.5674 160.119 30.5674C159.293 30.5674 158.653 30.377 158.198 29.9965C157.752 29.616 157.429 29.1427 157.23 28.5768C157.031 28.0108 156.912 27.4498 156.874 26.8936C156.836 26.3277 156.817 25.8642 156.817 25.5031V18.0386H152.889V26.9083C152.889 27.1716 152.908 27.5913 152.946 28.167C152.984 28.7427 153.094 29.3818 153.274 30.0844C153.454 30.7771 153.753 31.4455 154.171 32.0895C154.598 32.7335 155.19 33.2653 155.949 33.6849C156.707 34.1044 157.69 34.3143 158.894 34.3143Z" fill="#6D6D6D"/>
<path d="M169.531 33.8461H173.43V24.2738C173.43 23.3665 173.671 22.6298 174.155 22.0637C174.648 21.488 175.298 21.2002 176.105 21.2002C176.949 21.2002 177.609 21.493 178.083 22.0785C178.566 22.6541 178.809 23.464 178.809 24.5081V33.8461H182.679V24.2738C182.679 23.3665 182.921 22.6298 183.405 22.0637C183.898 21.488 184.548 21.2002 185.354 21.2002C186.199 21.2002 186.857 21.493 187.331 22.0785C187.816 22.6541 188.058 23.464 188.058 24.5081V33.8461H191.928V23.4542C191.928 21.7271 191.477 20.3318 190.576 19.2682C189.685 18.1949 188.361 17.6582 186.606 17.6582C185.62 17.6582 184.714 17.8777 183.888 18.3168C183.063 18.756 182.404 19.3561 181.91 20.1171C181.512 19.3756 180.943 18.7804 180.203 18.3315C179.463 17.8827 178.543 17.6582 177.442 17.6582C176.512 17.6582 175.659 17.8485 174.881 18.2291C174.103 18.5998 173.458 19.1121 172.946 19.7658V18.0387H169.531V33.8461Z" fill="#6D6D6D"/>
<path d="M22.781 0.496094C10.4316 0.496094 0.42041 10.7935 0.42041 23.4961C12.7698 23.4961 22.781 13.1986 22.781 0.496094Z" fill="#999999"/>
<path d="M22.781 46.4961C35.1304 46.4961 45.1416 36.1986 45.1416 23.4961C32.7922 23.4961 22.781 33.7935 22.781 46.4961Z" fill="#999999"/>
<path d="M22.781 0.496094C35.1304 0.496094 45.1416 10.7935 45.1416 23.4961C32.7922 23.4961 22.781 13.1986 22.781 0.496094Z" fill="#6D6D6D"/>
<path d="M22.781 46.4961C10.4316 46.4961 0.420409 36.1986 0.42041 23.4961C12.7698 23.4961 22.781 33.7935 22.781 46.4961Z" fill="#6D6D6D"/>
</g>
<defs>
<clipPath id="clip0_407_623">
<rect width="192.301" height="46" fill="white" transform="translate(0.42041 0.496094)"/>
</clipPath>
</defs>
</svg>
