<svg width="187" height="38" viewBox="0 0 187 38" fill="none" xmlns="http://www.w3.org/2000/svg">
<g clip-path="url(#clip0_407_593)">
<path d="M73.6523 7.76172H69.7512V26.4505H80.5507V22.7885H73.6523V7.76172Z" fill="#6D6D6D"/>
<path d="M80.9233 20.1117C80.9233 24.1021 83.4448 26.7538 87.2507 26.7538C91.0329 26.7538 93.5544 24.1021 93.5544 20.1117C93.5544 16.1214 91.0329 13.4443 87.2507 13.4443C83.4448 13.4443 80.9233 16.1214 80.9233 20.1117ZM84.6103 20.0864C84.6103 18.1924 85.657 16.9296 87.2507 16.9296C88.8207 16.9296 89.8674 18.1924 89.8674 20.0864C89.8674 22.0059 88.8207 23.2686 87.2507 23.2686C85.657 23.2686 84.6103 22.0059 84.6103 20.0864Z" fill="#6D6D6D"/>
<path d="M94.1435 19.9094C94.1435 23.7228 96.4748 26.2988 99.7811 26.2988C101.375 26.2988 102.755 25.6927 103.444 24.7078V26.4504C103.444 28.193 102.422 29.3547 100.614 29.3547C98.9961 29.3547 97.8781 28.5466 97.8068 27.107H94.0959C94.429 30.567 96.9505 32.8904 100.4 32.8904C104.467 32.8904 107.036 30.0871 107.036 25.6422V13.8229H103.73L103.54 15.1108C102.874 14.0754 101.47 13.3936 99.8526 13.3936C96.5222 13.3936 94.1435 16.0453 94.1435 19.9094ZM97.8544 19.8083C97.8544 17.9899 98.9961 16.7777 100.447 16.7777C102.136 16.7777 103.373 17.9647 103.373 19.8083C103.373 21.652 102.16 22.9147 100.471 22.9147C99.02 22.9147 97.8544 21.652 97.8544 19.8083Z" fill="#6D6D6D"/>
<path d="M108.104 20.1117C108.104 24.1021 110.626 26.7538 114.432 26.7538C118.214 26.7538 120.735 24.1021 120.735 20.1117C120.735 16.1214 118.214 13.4443 114.432 13.4443C110.626 13.4443 108.104 16.1214 108.104 20.1117ZM111.791 20.0864C111.791 18.1924 112.837 16.9296 114.432 16.9296C116.001 16.9296 117.048 18.1924 117.048 20.0864C117.048 22.0059 116.001 23.2686 114.432 23.2686C112.837 23.2686 111.791 22.0059 111.791 20.0864Z" fill="#6D6D6D"/>
<path d="M123.893 11.8532C125.035 11.8532 125.963 10.8683 125.963 9.63078C125.963 8.39328 125.035 7.43359 123.893 7.43359C122.728 7.43359 121.8 8.39328 121.8 9.63078C121.8 10.8683 122.728 11.8532 123.893 11.8532ZM122.038 26.4507H125.725V13.8231H122.038V26.4507Z" fill="#6D6D6D"/>
<path d="M127.872 32.5118H131.487V25.1878C132.177 26.1475 133.747 26.8042 135.388 26.8042C138.932 26.8042 141.073 23.9251 140.979 19.9348C140.883 15.8687 138.671 13.4189 135.365 13.4189C133.675 13.4189 132.082 14.2018 131.416 15.3636L131.225 13.8231H127.872V32.5118ZM131.558 20.1368C131.558 18.2427 132.748 16.98 134.461 16.98C136.197 16.98 137.291 18.2679 137.291 20.1368C137.291 22.0057 136.197 23.2937 134.461 23.2937C132.748 23.2937 131.558 22.0309 131.558 20.1368Z" fill="#6D6D6D"/>
<path d="M141.369 22.4602C141.463 25.011 143.367 26.7788 146.364 26.7788C149.243 26.7788 151.241 25.1625 151.241 22.5613C151.241 20.6925 150.194 19.4549 148.243 18.9498L146.127 18.3942C145.365 18.1922 144.89 17.9901 144.89 17.3334C144.89 16.6768 145.388 16.2475 146.127 16.2475C146.959 16.2475 147.505 16.8284 147.483 17.687H150.789C150.693 15.0605 148.815 13.4189 146.198 13.4189C143.558 13.4189 141.583 15.0858 141.583 17.6113C141.583 19.3033 142.463 20.6925 144.818 21.3491L146.911 21.9299C147.529 22.1067 147.791 22.4097 147.791 22.839C147.791 23.4705 147.244 23.8746 146.316 23.8746C145.246 23.8746 144.675 23.3442 144.675 22.4602H141.369Z" fill="#6D6D6D"/>
<path d="M156.847 26.779C158.299 26.779 159.75 26.0719 160.487 25.0364L160.725 26.4508H164.175V13.8232H160.511V20.3896C160.511 22.2836 159.988 23.3191 158.299 23.3191C156.99 23.3191 156.134 22.6877 156.134 20.3391V13.8232H152.47V21.7533C152.47 24.7587 154.041 26.779 156.847 26.779Z" fill="#6D6D6D"/>
<path d="M169.983 26.4504V19.5558C169.983 17.4343 171.054 16.8282 172.101 16.8282C173.266 16.8282 174.027 17.5859 174.027 19.1517V26.4504H177.643V19.5558C177.643 17.4091 178.689 16.803 179.736 16.803C180.901 16.803 181.686 17.5606 181.686 19.1517V26.4504H185.255V18.192C185.255 15.3129 183.828 13.3936 180.759 13.3936C179.047 13.3936 177.643 14.2774 177.024 15.6412C176.311 14.2774 175.074 13.3936 173.099 13.3936C171.791 13.3936 170.578 14.0249 169.865 15.0351L169.722 13.8229H166.296V26.4504H169.983Z" fill="#6D6D6D"/>
<path d="M0.0517578 18.9961C0.0517578 8.77882 7.85314 0.496094 17.4766 0.496094H40.3468C49.9703 0.496094 57.7717 8.77882 57.7717 18.9961V37.4961H17.4766C7.85314 37.4961 0.0517578 29.2134 0.0517578 18.9961Z" fill="#6D6D6D"/>
<path d="M40.3466 7.43359H17.4765C11.4618 7.43359 6.58594 12.6103 6.58594 18.9961C6.58594 25.3819 11.4618 30.5586 17.4765 30.5586H40.3466C46.3613 30.5586 51.2372 25.3819 51.2372 18.9961C51.2372 12.6103 46.3613 7.43359 40.3466 7.43359Z" fill="#999999"/>
<path d="M17.4765 24.7773C20.4839 24.7773 22.9218 22.189 22.9218 18.9961C22.9218 15.8032 20.4839 13.2148 17.4765 13.2148C14.4692 13.2148 12.0312 15.8032 12.0312 18.9961C12.0312 22.189 14.4692 24.7773 17.4765 24.7773Z" fill="black"/>
<path d="M15.2985 17.8398C15.9 17.8398 16.3876 17.3222 16.3876 16.6836C16.3876 16.045 15.9 15.5273 15.2985 15.5273C14.6971 15.5273 14.2095 16.045 14.2095 16.6836C14.2095 17.3222 14.6971 17.8398 15.2985 17.8398Z" fill="white"/>
<path d="M41.4358 24.7773C44.4431 24.7773 46.881 22.189 46.881 18.9961C46.881 15.8032 44.4431 13.2148 41.4358 13.2148C38.4284 13.2148 35.9905 15.8032 35.9905 18.9961C35.9905 22.189 38.4284 24.7773 41.4358 24.7773Z" fill="black"/>
<path d="M39.2578 17.8398C39.8592 17.8398 40.3468 17.3222 40.3468 16.6836C40.3468 16.045 39.8592 15.5273 39.2578 15.5273C38.6563 15.5273 38.1687 16.045 38.1687 16.6836C38.1687 17.3222 38.6563 17.8398 39.2578 17.8398Z" fill="white"/>
</g>
<defs>
<clipPath id="clip0_407_593">
<rect width="186.228" height="37" fill="white" transform="translate(0.0517578 0.496094)"/>
</clipPath>
</defs>
</svg>
