<svg width="143" height="47" viewBox="0 0 143 47" fill="none" xmlns="http://www.w3.org/2000/svg">
<g clip-path="url(#clip0_407_672)">
<path d="M101.274 43.3051C102.135 43.3051 102.644 42.6438 102.644 41.61C102.644 40.5382 102.097 39.9149 101.293 39.9149C100.832 39.9149 100.513 40.1219 100.274 40.4508H100.262V38.7568H99.7634V43.2108H100.262V42.7876H100.274C100.532 43.1487 100.845 43.3051 101.274 43.3051ZM101.238 42.8807C100.563 42.8807 100.23 42.3391 100.23 41.6157C100.23 40.9188 100.55 40.345 101.244 40.345C101.846 40.345 102.135 40.8935 102.135 41.6157C102.135 42.3448 101.846 42.8807 101.238 42.8807ZM103.486 44.2768C103.873 44.2768 104.119 44.1388 104.376 43.4718L105.734 39.9896H105.206L104.48 41.9964C104.383 42.2643 104.272 42.6254 104.272 42.6254H104.26C104.26 42.6254 104.142 42.2643 104.045 41.9964L103.296 39.9896H102.755L103.995 43.1176L103.873 43.435C103.75 43.7467 103.608 43.8283 103.4 43.8283C103.283 43.8343 103.167 43.8106 103.062 43.7593H103.037V44.2078C103.173 44.2642 103.296 44.2768 103.486 44.2768ZM107.007 43.2108H107.842V38.7568H107.007V43.2108ZM109.885 43.3051C110.861 43.3051 111.531 42.5691 111.531 41.6157C111.531 40.6624 110.862 39.9275 109.885 39.9275C108.909 39.9275 108.239 40.6635 108.239 41.6157C108.239 42.5702 108.908 43.3051 109.885 43.3051ZM109.885 42.6565C109.369 42.6565 109.087 42.239 109.087 41.6157C109.087 40.9936 109.369 40.5692 109.885 40.5692C110.395 40.5692 110.683 40.9936 110.683 41.6157C110.683 42.239 110.395 42.6565 109.885 42.6565ZM113.307 44.301C113.774 44.301 114.179 44.1894 114.443 43.9399C114.677 43.7214 114.818 43.4166 114.818 42.9681V40.0149H114.013V40.3519H114.001C113.811 40.0839 113.523 39.9275 113.128 39.9275C112.331 39.9275 111.766 40.5382 111.766 41.4915C111.766 42.4575 112.454 43.0176 113.154 43.0176C113.553 43.0176 113.792 42.8566 113.976 42.6438H113.995V42.9934C113.995 43.4293 113.769 43.6604 113.295 43.6604C112.908 43.6604 112.73 43.504 112.662 43.3039H111.834C111.919 43.9272 112.447 44.301 113.307 44.301ZM113.296 42.3391C112.865 42.3391 112.582 42.0217 112.582 41.4789C112.582 40.943 112.865 40.6072 113.289 40.6072C113.792 40.6072 114.038 41.0051 114.038 41.4731C114.038 41.9469 113.823 42.3391 113.295 42.3391H113.296ZM116.849 43.3051C117.825 43.3051 118.494 42.5691 118.494 41.6157C118.494 40.6624 117.825 39.9275 116.849 39.9275C115.871 39.9275 115.203 40.6635 115.203 41.6157C115.203 42.5702 115.871 43.3051 116.849 43.3051ZM116.849 42.6565C116.333 42.6565 116.049 42.239 116.049 41.6157C116.049 40.9936 116.333 40.5692 116.849 40.5692C117.357 40.5692 117.647 40.9936 117.647 41.6157C117.647 42.239 117.357 42.6565 116.849 42.6565ZM118.882 43.2108H119.718V40.0149H118.882V43.2108ZM118.882 39.517H119.718V38.7568H118.882V39.517ZM120.256 44.2573H121.091V42.8508H121.103C121.282 43.1257 121.57 43.3062 122.012 43.3062C122.822 43.3062 123.376 42.6507 123.376 41.6169C123.376 40.6198 122.842 39.9287 122.006 39.9287C121.824 39.9257 121.644 39.9685 121.482 40.0534C121.32 40.1383 121.182 40.2626 121.079 40.4151H121.061V40.0161H120.256V44.2596V44.2573ZM121.834 42.6013C121.336 42.6013 121.072 42.2206 121.072 41.641C121.072 41.0683 121.282 40.6129 121.803 40.6129C122.319 40.6129 122.528 41.0361 122.528 41.641C122.528 42.2459 122.258 42.6013 121.834 42.6013ZM125.042 43.3051C125.827 43.3051 126.368 42.9187 126.368 42.277C126.368 41.5295 125.784 41.38 125.256 41.2673C124.808 41.1741 124.391 41.1488 124.391 40.8751C124.391 40.6451 124.605 40.5186 124.931 40.5186C125.288 40.5186 125.502 40.6451 125.54 40.9867H126.294C126.233 40.345 125.773 39.9287 124.943 39.9287C124.225 39.9287 123.66 40.2576 123.66 40.9499C123.66 41.6468 124.212 41.8032 124.778 41.9159C125.207 42.0021 125.606 42.0332 125.606 42.3391C125.606 42.5633 125.398 42.7071 125.029 42.7071C124.655 42.7071 124.397 42.5449 124.341 42.1769H123.568C123.617 42.8554 124.127 43.3051 125.042 43.3051ZM129.54 43.2108V40.0149H128.704V41.8595C128.704 42.2827 128.464 42.5817 128.072 42.5817C127.716 42.5817 127.549 42.3759 127.549 42.0021V40.0149H126.721V42.1459C126.721 42.8439 127.114 43.2982 127.813 43.2982C128.256 43.2982 128.502 43.1303 128.717 42.8382H128.735V43.2108H129.54ZM130.079 43.2108H130.915V41.3558C130.915 40.9315 131.142 40.6578 131.479 40.6578C131.787 40.6578 131.965 40.8452 131.965 41.2063V43.2119H132.8V41.3558C132.8 40.9315 133.015 40.6578 133.366 40.6578C133.673 40.6578 133.851 40.8452 133.851 41.2063V43.2119H134.686V41.0626C134.686 40.3645 134.311 39.9287 133.648 39.9287C133.249 39.9287 132.917 40.1403 132.703 40.4899H132.69C132.614 40.3201 132.491 40.1766 132.336 40.0768C132.181 39.9771 132.001 39.9256 131.817 39.9287C131.633 39.924 131.451 39.9695 131.29 40.0606C131.129 40.1516 130.995 40.2848 130.902 40.4462H130.884V40.0161H130.079V43.2131V43.2108Z" fill="#999999"/>
<path d="M134.851 2.96758C134.851 1.60713 135.938 0.503131 137.279 0.503131H138.899C139.543 0.503131 140.161 0.762777 140.616 1.22495C141.072 1.68713 141.328 2.31397 141.328 2.96758C141.328 3.62119 141.072 4.24804 140.616 4.71021C140.161 5.17238 139.543 5.43203 138.899 5.43203H137.279C136.96 5.43203 136.644 5.36828 136.349 5.24441C136.055 5.12055 135.787 4.939 135.562 4.71014C135.336 4.48128 135.157 4.20959 135.035 3.9106C134.913 3.6116 134.851 3.29116 134.851 2.96758ZM66.8471 16.9297C66.8471 26.0009 59.5991 33.3552 50.6564 33.3552C41.7149 33.3552 34.4657 26.0009 34.4657 16.9297C34.4657 7.85623 41.7149 0.504281 50.6564 0.504281C59.5991 0.504281 66.8471 7.85623 66.8471 16.9297ZM31.3076 16.8481C32.2031 16.8481 32.9354 17.5841 32.8459 18.488C32.5398 21.5813 31.3748 24.5229 29.4861 26.9711C27.5974 29.4193 25.0626 31.2734 22.1764 32.318C19.2902 33.3627 16.171 33.5548 13.1814 32.8723C10.1917 32.1897 7.45442 30.6604 5.28756 28.4622C3.1207 26.2639 1.61327 23.4869 0.940463 20.4539C0.267658 17.4209 0.457107 14.2565 1.48679 11.3284C2.51648 8.40035 4.34411 5.82885 6.75729 3.91277C9.17047 1.9967 12.0701 0.814752 15.1192 0.504281C16.009 0.412281 16.7356 1.15748 16.7356 2.06368V15.2047C16.7356 16.1132 17.4611 16.8481 18.3555 16.8481H31.3076ZM89.515 36.6407C90.8032 36.6407 92.0387 37.1599 92.9496 38.084C93.8606 39.0082 94.3723 40.2616 94.3723 41.5685C94.3723 42.8754 93.8606 44.1288 92.9496 45.0529C92.0387 45.9771 90.8032 46.4962 89.515 46.4962H81.4202C80.132 46.4962 78.8965 45.9771 77.9856 45.0529C77.0746 44.1288 76.5629 42.8754 76.5629 41.5685C76.5629 40.2616 77.0746 39.0082 77.9856 38.084C78.8965 37.1599 80.132 36.6407 81.4202 36.6407H89.515ZM84.6577 33.3552C93.6004 33.3552 100.849 26.0009 100.849 16.9297C100.853 14.1432 100.155 11.4019 98.8215 8.96598L101.497 6.25198C101.805 5.93922 102.049 5.56794 102.216 5.15936C102.383 4.75077 102.468 4.31287 102.468 3.87067C102.468 3.42846 102.382 2.99061 102.215 2.5821C102.049 2.1736 101.804 1.80244 101.496 1.48983C101.187 1.17722 100.821 0.929271 100.419 0.760145C100.016 0.591018 99.5842 0.504025 99.1483 0.504132C98.7125 0.504239 98.2809 0.591443 97.8782 0.760767C97.4755 0.930091 97.1097 1.17822 96.8015 1.49098L94.4664 3.85998C91.6492 1.67717 88.2014 0.497344 84.6565 0.503131C75.7161 0.504281 68.4681 7.85623 68.4681 16.9297C68.4681 26.0009 75.7161 33.3552 84.6577 33.3552ZM134.851 16.9297C134.851 26.0009 127.602 33.3552 118.659 33.3552C109.717 33.3552 102.468 26.0009 102.468 16.9297C102.468 7.85623 109.717 0.504281 118.659 0.504281C127.602 0.504281 134.851 7.85738 134.851 16.9297Z" fill="#6D6D6D"/>
</g>
<defs>
<clipPath id="clip0_407_672">
<rect width="141.695" height="46" fill="white" transform="translate(0.544922 0.496094)"/>
</clipPath>
</defs>
</svg>
