<svg width="120" height="120" viewBox="0 0 120 120" fill="none" xmlns="http://www.w3.org/2000/svg">
<g id="Group 1000002886">
<g id="XMLID_6_">
<g id="Group">
<path id="Vector" d="M65.1157 101.677L59.3639 98.3547V87.7089L64.7686 90.8327L65.1157 101.677Z" fill="white"/>
<path id="Vector_2" d="M59.3638 87.709V98.3499L44.5777 89.8163V79.1755L39.1085 76.0169L39.3862 67.5429C39.5102 63.8737 41.8902 62.1283 45.0884 63.363C45.0884 63.363 46.7941 64.0323 47.0718 64.1464C47.0718 64.1464 47.0718 64.1513 47.0768 64.1513C48.361 65.9909 50.0667 67.6371 51.941 68.7181C53.8451 69.8189 55.5805 70.1312 56.8697 69.7494C57.3904 70.1263 57.906 70.518 58.4168 70.9147L58.863 71.2667C62.0265 73.7311 64.3768 78.1887 64.4909 81.9671L64.7686 90.8378L59.3638 87.709Z" fill="#F6D84C"/>
<path id="Vector_3" d="M57.5392 57.4574C57.5392 57.4574 57.5342 60.0754 57.5243 60.249C57.3854 62.5695 56.3293 64.0174 54.8269 64.2405C54.0831 64.3546 53.2352 64.1662 52.3328 63.6505L51.5493 63.1993C50.6965 62.7034 49.8883 61.9696 49.1742 61.0671C47.4933 58.9498 46.343 55.945 46.343 53.2526V50.9965C46.343 50.3568 46.4124 49.7767 46.5314 49.2561C47.3049 49.0329 48.2718 49.1866 49.318 49.7965L54.569 52.8261C55.4516 53.3369 56.2747 54.1005 56.9788 54.993L57.2367 54.9385C57.4301 55.7863 57.5392 56.6342 57.5392 57.4574Z" fill="white"/>
<path id="Vector_4" d="M57.2317 54.9335L56.9738 54.988C56.2697 54.0905 55.4417 53.3269 54.564 52.8211L49.313 49.7915C48.2668 49.1816 47.2999 49.0279 46.5264 49.2511C46.8388 47.8924 47.5528 46.9751 48.4998 46.6082C49.3577 46.2809 50.4088 46.3999 51.5443 47.0545L52.3278 47.5057C54.5938 48.8147 56.5127 51.8394 57.2317 54.9335Z" fill="#3A3A3A"/>
<path id="Vector_5" d="M54.8864 64.6074V67.4733C54.8864 67.9841 55.2235 68.589 55.6599 68.8915C56.0615 69.1691 56.4681 69.4567 56.8697 69.7493C55.5805 70.1311 53.8451 69.8237 51.941 68.7179C50.0667 67.637 48.361 65.9858 47.0768 64.1512C47.4635 64.3099 47.8503 64.4735 48.2371 64.652C48.6684 64.8503 49.0007 64.6272 49.0007 64.1214V61.2059L49.1742 61.067C49.8882 61.9695 50.6915 62.7033 51.5493 63.1992L52.3328 63.6504C53.2352 64.171 54.0831 64.3545 54.8269 64.2404L54.8864 64.6074Z" fill="white"/>
<path id="Vector_6" d="M48.4454 46.147C49.5263 42.8843 52.6353 41.848 56.1558 43.881C62.8547 47.7436 63.8166 56.1234 71.9138 62.7281C68.1305 63.6256 65.0116 64.7016 59.8052 61.6967C58.992 61.2207 58.2383 60.7397 57.5392 60.2489H57.5243C57.5342 60.0753 57.5392 59.8968 57.5392 59.7133V57.4572C57.5392 56.6341 57.4301 55.7813 57.2367 54.9334C56.5178 51.8393 54.5939 48.8146 52.3328 47.5106L51.5494 47.0593C50.4139 46.4048 49.3676 46.2809 48.5049 46.6131L48.4454 46.147Z" fill="#3A3A3A"/>
<path id="Vector_7" d="M64.7686 90.8326L64.4909 81.9619C64.3719 78.1886 62.0216 73.7259 58.8631 71.2616L58.4168 70.9095C57.9061 70.5129 57.3904 70.1211 56.8698 69.7443C56.4681 69.4518 56.0615 69.1592 55.6599 68.8865C55.2236 68.584 54.8864 67.9791 54.8864 67.4684V64.6024L54.8269 64.2355C56.3293 64.0123 57.3854 62.5595 57.5243 60.2439H57.5392C58.2383 60.7348 58.992 61.2157 59.8052 61.6918C65.0116 64.6966 68.1354 63.6206 71.9137 62.7231C63.8166 56.1185 62.8546 47.7387 56.1557 43.876C52.6303 41.843 49.5263 42.8843 48.4453 46.142L48.4999 46.6032C47.5528 46.9701 46.8388 47.8874 46.5264 49.246C46.4025 49.7667 46.338 50.3468 46.338 50.9864V53.2425C46.338 55.935 47.4933 58.9398 49.1693 61.0571L48.9957 61.1959V64.1115C48.9957 64.6173 48.6635 64.8404 48.2321 64.642C47.8454 64.4685 47.4586 64.2999 47.0719 64.1412C47.0669 64.1412 47.0669 64.1363 47.0669 64.1363C46.7892 64.0222 45.0835 63.3528 45.0835 63.3528C41.8853 62.1182 39.5052 63.8636 39.3813 67.5328L38.7615 86.4543L35.1021 84.342C30.2924 81.5653 26.4 74.1276 26.4 67.7212V25.619C26.4 22.1183 27.5653 19.644 29.4098 18.5829C30.9271 17.7003 32.9154 17.7796 35.1021 19.0391L74.2492 41.6447C79.0539 44.4214 82.9513 51.8641 82.9513 58.2655V100.368C82.9513 103.799 81.8406 106.234 80.0654 107.339L79.9415 107.414C78.4143 108.296 76.421 108.212 74.2492 106.958L65.1107 101.682L64.7686 90.8326Z" fill="white"/>
<path id="Vector_8" d="M44.5778 79.1705V89.8163L38.7615 86.4545L39.1086 76.012L44.5778 79.1705Z" fill="white"/>
<path id="Vector_9" d="M29.4098 18.578L39.7928 12.5882C41.325 11.7056 43.3133 11.7849 45.4851 13.0394L84.6421 35.65C89.4419 38.4267 93.3442 45.8644 93.3442 52.2708V94.378C93.3442 97.8787 92.1789 100.348 90.3344 101.414L80.0704 107.339C81.8405 106.239 82.9562 103.799 82.9562 100.368V58.2655C82.9562 51.8642 79.0638 44.4215 74.2541 41.6448L35.1071 19.0392C32.9253 17.7748 30.937 17.7004 29.4147 18.583L29.4098 18.578Z" fill="#D7DCE0"/>
</g>
<g id="Group_2">
<path id="Vector_10" d="M59.3638 98.3497L35.107 84.342C30.2973 81.5653 26.4049 74.1276 26.4049 67.7213V25.619C26.4049 22.1183 27.5701 19.649 29.4147 18.5829C30.9369 17.7053 32.9203 17.7796 35.107 19.0391L74.254 41.6447C79.0588 44.4215 82.9562 51.8641 82.9562 58.2655V100.368C82.9562 103.799 81.8455 106.234 80.0703 107.339" stroke="#3A3A3A" stroke-miterlimit="10" stroke-linecap="round" stroke-linejoin="round"/>
<path id="Vector_11" d="M79.9464 107.409C78.4192 108.291 76.4259 108.207 74.2541 106.953L59.3638 98.3547" stroke="#3A3A3A" stroke-miterlimit="10" stroke-linecap="round" stroke-linejoin="round"/>
<path id="Vector_12" d="M29.4097 18.578L39.7927 12.5882C41.3248 11.7056 43.3132 11.7849 45.485 13.0394L84.642 35.65C89.4418 38.4267 93.3441 45.8644 93.3441 52.2708V94.378C93.3441 97.8787 92.1788 100.348 90.3343 101.414L79.9463 107.409" stroke="#3A3A3A" stroke-miterlimit="10" stroke-linecap="round" stroke-linejoin="round"/>
<path id="Vector_13" d="M54.8218 64.2454C54.078 64.3545 53.2301 64.171 52.3276 63.6554L51.5442 63.2041C50.6914 62.7083 49.8831 61.9744 49.1691 61.072C47.4882 58.9547 46.3378 55.9499 46.3378 53.2575V51.0014C46.3378 50.3617 46.4073 49.7816 46.5263 49.2609C46.8436 47.9023 47.5527 46.985 48.4997 46.6181C49.3575 46.2859 50.4087 46.4098 51.5442 47.0643L52.3276 47.5156C54.5887 48.8196 56.5126 51.8393 57.2316 54.9384C57.4299 55.7863 57.534 56.6391 57.534 57.4622C57.534 57.4622 57.5291 60.0803 57.5192 60.2538C57.3853 62.5694 56.3291 64.0173 54.8218 64.2454Z" stroke="#3A3A3A" stroke-miterlimit="10" stroke-linecap="round" stroke-linejoin="round"/>
<path id="Vector_14" d="M46.5312 49.2561C47.3048 49.0329 48.2717 49.1866 49.3179 49.7965L54.5689 52.8261C55.4515 53.3369 56.2746 54.1005 56.9787 54.993" stroke="#3A3A3A" stroke-miterlimit="10" stroke-linecap="round" stroke-linejoin="round"/>
<path id="Vector_15" d="M47.0767 64.1511C47.4635 64.3098 47.8502 64.4734 48.237 64.6519C48.6684 64.8503 49.0006 64.6272 49.0006 64.1214V61.2058" stroke="#3A3A3A" stroke-miterlimit="10" stroke-linecap="round" stroke-linejoin="round"/>
<path id="Vector_16" d="M38.7614 86.4593L39.3861 67.5378C39.5101 63.8686 41.8901 62.1232 45.0884 63.3578C45.0884 63.3578 46.7941 64.0272 47.0717 64.1413" stroke="#3A3A3A" stroke-miterlimit="10" stroke-linecap="round" stroke-linejoin="round"/>
<path id="Vector_17" d="M57.5391 60.2488C58.2382 60.7397 58.9919 61.2206 59.8051 61.6967C65.0115 64.7015 68.1353 63.6255 71.9136 62.728C63.8165 56.1233 62.8545 47.7435 56.1557 43.8809C52.6302 41.8479 49.5262 42.8892 48.4453 46.1469" stroke="#3A3A3A" stroke-miterlimit="10" stroke-linecap="round" stroke-linejoin="round"/>
<path id="Vector_18" d="M47.0718 64.1462C47.0718 64.1462 47.0718 64.1512 47.0767 64.1512C48.361 65.9908 50.0667 67.637 51.941 68.7179C53.845 69.8187 55.5805 70.1311 56.8697 69.7493" stroke="#3A3A3A" stroke-miterlimit="10" stroke-linecap="round" stroke-linejoin="round"/>
<path id="Vector_19" d="M59.3638 82.3389V98.3547" stroke="#3A3A3A" stroke-miterlimit="10" stroke-linecap="round" stroke-linejoin="round"/>
<path id="Vector_20" d="M65.1156 101.677L64.4908 81.9621C64.3718 78.1887 62.0215 73.7261 58.863 71.2617L58.4167 70.9097C57.906 70.513 57.3903 70.1213 56.8697 69.7445C56.468 69.4519 56.0614 69.1594 55.6598 68.8866C55.2235 68.5842 54.8863 67.9793 54.8863 67.4685V64.6025" stroke="#3A3A3A" stroke-miterlimit="10" stroke-linecap="round" stroke-linejoin="round"/>
<path id="Vector_21" d="M44.5777 73.8053V89.8211" stroke="#3A3A3A" stroke-miterlimit="10" stroke-linecap="round" stroke-linejoin="round"/>
<path id="Vector_22" d="M39.1085 76.012L44.5776 79.1705" stroke="#3A3A3A" stroke-miterlimit="10" stroke-linecap="round" stroke-linejoin="round"/>
<path id="Vector_23" d="M59.3638 87.7089L64.7686 90.8327H64.7735" stroke="#3A3A3A" stroke-miterlimit="10" stroke-linecap="round" stroke-linejoin="round"/>
</g>
</g>
</g>
</svg>
