<svg width="228" height="48" viewBox="0 0 228 48" fill="none" xmlns="http://www.w3.org/2000/svg">
<path d="M99.7205 23C99.5129 23 99.3335 22.9339 99.1824 22.8017C99.0503 22.6507 98.9842 22.4713 98.9842 22.2636V9.00919C98.9842 8.8015 99.0503 8.63157 99.1824 8.49941C99.3335 8.34836 99.5129 8.27283 99.7205 8.27283H103.601C103.808 8.27283 103.978 8.34836 104.11 8.49941C104.261 8.63157 104.337 8.8015 104.337 9.00919V9.9438C104.696 9.49066 105.215 9.06584 105.895 8.66933C106.574 8.25395 107.377 8.02738 108.302 7.98962C110.511 7.93298 112.003 8.72598 112.777 10.3686C113.211 9.68891 113.825 9.12248 114.618 8.66933C115.43 8.21619 116.289 7.98962 117.195 7.98962C118.177 7.98962 119.055 8.21619 119.829 8.66933C120.622 9.1036 121.254 9.78331 121.726 10.7085C122.198 11.6148 122.434 12.8043 122.434 14.277V22.2636C122.434 22.4713 122.359 22.6507 122.208 22.8017C122.076 22.9339 121.906 23 121.698 23H117.563C117.355 23 117.176 22.9339 117.025 22.8017C116.893 22.6507 116.827 22.4713 116.827 22.2636V14.4469C116.827 13.956 116.751 13.569 116.6 13.2857C116.449 12.9836 116.251 12.7665 116.005 12.6343C115.779 12.4833 115.505 12.4078 115.184 12.4078C114.882 12.4078 114.608 12.4833 114.363 12.6343C114.117 12.7665 113.919 12.9836 113.768 13.2857C113.636 13.569 113.57 13.956 113.57 14.4469V22.2636C113.57 22.4713 113.494 22.6507 113.343 22.8017C113.211 22.9339 113.041 23 112.833 23H108.698C108.491 23 108.311 22.9339 108.16 22.8017C108.028 22.6507 107.962 22.4713 107.962 22.2636V14.4469C107.962 13.956 107.887 13.569 107.736 13.2857C107.584 12.9836 107.386 12.7665 107.141 12.6343C106.914 12.4833 106.64 12.4078 106.319 12.4078C106.017 12.4078 105.744 12.4833 105.498 12.6343C105.253 12.7854 105.054 13.0025 104.903 13.2857C104.752 13.569 104.677 13.956 104.677 14.4469V22.2636C104.677 22.4713 104.601 22.6507 104.45 22.8017C104.318 22.9339 104.148 23 103.94 23H99.7205ZM129.791 23.2832C128.753 23.2832 127.818 23.085 126.987 22.6885C126.175 22.292 125.533 21.7633 125.061 21.1025C124.608 20.4227 124.382 19.6675 124.382 18.8367C124.382 17.4773 124.929 16.4105 126.024 15.6364C127.138 14.8434 128.62 14.2959 130.471 13.9938L133.756 13.484V13.2857C133.756 12.7004 133.662 12.2662 133.473 11.9829C133.284 11.6809 132.906 11.5298 132.34 11.5298C131.944 11.5298 131.623 11.6053 131.377 11.7564C131.132 11.9074 130.905 12.1246 130.697 12.4078C130.509 12.6155 130.263 12.7193 129.961 12.7193H125.968C125.779 12.7193 125.618 12.6627 125.486 12.5494C125.373 12.4361 125.326 12.285 125.345 12.0962C125.364 11.7564 125.505 11.3599 125.769 10.9067C126.034 10.4347 126.44 9.98156 126.987 9.5473C127.554 9.09416 128.281 8.72598 129.168 8.44276C130.055 8.14067 131.122 7.98962 132.368 7.98962C133.633 7.98962 134.719 8.13123 135.625 8.41444C136.532 8.69766 137.277 9.09416 137.863 9.60394C138.448 10.1137 138.882 10.7368 139.165 11.4732C139.449 12.1906 139.59 12.9931 139.59 13.8805V22.2636C139.59 22.4713 139.515 22.6507 139.364 22.8017C139.232 22.9339 139.062 23 138.854 23H134.747C134.54 23 134.36 22.9339 134.209 22.8017C134.058 22.6507 133.983 22.4713 133.983 22.2636V21.3574C133.737 21.735 133.407 22.0654 132.991 22.3486C132.595 22.6318 132.123 22.8584 131.575 23.0283C131.047 23.1983 130.452 23.2832 129.791 23.2832ZM131.434 19.5731C131.906 19.5731 132.321 19.4787 132.68 19.2899C133.039 19.0822 133.312 18.7707 133.501 18.3553C133.709 17.9399 133.813 17.4207 133.813 16.7976V16.5993L131.774 16.9958C131.075 17.128 130.584 17.3168 130.301 17.5623C130.018 17.8077 129.876 18.0909 129.876 18.4119C129.876 18.6385 129.942 18.8367 130.074 19.0067C130.206 19.1766 130.386 19.3182 130.612 19.4315C130.858 19.5259 131.132 19.5731 131.434 19.5731ZM143.143 23C142.935 23 142.756 22.9339 142.605 22.8017C142.473 22.6507 142.407 22.4713 142.407 22.2636V9.00919C142.407 8.8015 142.473 8.63157 142.605 8.49941C142.756 8.34836 142.935 8.27283 143.143 8.27283H147.25C147.457 8.27283 147.627 8.34836 147.76 8.49941C147.911 8.63157 147.986 8.8015 147.986 9.00919V10.0571C148.553 9.50954 149.194 9.07528 149.912 8.7543C150.648 8.43332 151.451 8.27283 152.319 8.27283H153.594C153.801 8.27283 153.981 8.34836 154.132 8.49941C154.283 8.63157 154.358 8.8015 154.358 9.00919V12.6627C154.358 12.8704 154.283 13.0497 154.132 13.2008C153.981 13.3329 153.801 13.399 153.594 13.399H150.422C149.742 13.399 149.223 13.5784 148.864 13.9371C148.505 14.2959 148.326 14.8151 148.326 15.4948V22.2636C148.326 22.4713 148.25 22.6507 148.099 22.8017C147.967 22.9339 147.797 23 147.59 23H143.143ZM156.917 23C156.709 23 156.53 22.9339 156.379 22.8017C156.246 22.6507 156.18 22.4713 156.18 22.2636V3.62811C156.18 3.42042 156.246 3.25049 156.379 3.11833C156.53 2.96728 156.709 2.89176 156.917 2.89176H161.023C161.231 2.89176 161.401 2.96728 161.533 3.11833C161.684 3.25049 161.76 3.42042 161.76 3.62811V12.9742L164.988 8.7543C165.064 8.6599 165.168 8.55605 165.3 8.44276C165.432 8.32948 165.621 8.27283 165.866 8.27283H170.624C170.813 8.27283 170.964 8.33892 171.077 8.47109C171.21 8.58437 171.276 8.73542 171.276 8.92423C171.276 8.99975 171.257 9.08472 171.219 9.17912C171.2 9.27353 171.162 9.33961 171.106 9.37737L166.603 14.9001L171.814 21.9238C171.908 22.0748 171.955 22.2164 171.955 22.3486C171.955 22.5374 171.889 22.6979 171.757 22.8301C171.644 22.9434 171.493 23 171.304 23H166.376C166.093 23 165.885 22.9434 165.753 22.8301C165.64 22.6979 165.536 22.5941 165.441 22.5185L161.76 17.4207V22.2636C161.76 22.4713 161.684 22.6507 161.533 22.8017C161.401 22.9339 161.231 23 161.023 23H156.917ZM180.135 23.2832C177.775 23.2832 175.896 22.679 174.499 21.4706C173.121 20.2434 172.413 18.3742 172.375 15.863C172.375 15.7875 172.375 15.6931 172.375 15.5798C172.375 15.4476 172.375 15.3532 172.375 15.2966C172.432 13.7294 172.772 12.4078 173.395 11.3316C174.037 10.2365 174.924 9.40569 176.057 8.83926C177.209 8.27283 178.559 7.98962 180.107 7.98962C181.844 7.98962 183.279 8.33892 184.412 9.03751C185.563 9.71723 186.423 10.633 186.989 11.7847C187.555 12.9176 187.839 14.192 187.839 15.6081V16.4011C187.839 16.5899 187.763 16.7598 187.612 16.9109C187.461 17.0619 187.282 17.1375 187.074 17.1375H178.351C178.351 17.1375 178.351 17.1563 178.351 17.1941C178.351 17.2319 178.351 17.2696 178.351 17.3074C178.351 17.7605 178.408 18.1665 178.521 18.5252C178.653 18.8651 178.851 19.1388 179.116 19.3465C179.38 19.5353 179.701 19.6297 180.079 19.6297C180.324 19.6297 180.532 19.592 180.702 19.5165C180.872 19.4409 181.023 19.3465 181.155 19.2332C181.287 19.1011 181.4 18.9784 181.495 18.8651C181.665 18.6951 181.797 18.5913 181.891 18.5535C182.004 18.4969 182.174 18.4686 182.401 18.4686H186.847C187.017 18.4686 187.159 18.5252 187.272 18.6385C187.404 18.7518 187.461 18.8934 187.442 19.0633C187.423 19.4032 187.263 19.8186 186.961 20.3095C186.659 20.7815 186.205 21.2441 185.601 21.6972C185.016 22.1504 184.261 22.528 183.335 22.8301C182.41 23.1322 181.344 23.2832 180.135 23.2832ZM178.351 13.9655H181.863V13.9088C181.863 13.399 181.797 12.9648 181.665 12.606C181.532 12.2473 181.334 11.9829 181.07 11.813C180.805 11.6242 180.484 11.5298 180.107 11.5298C179.729 11.5298 179.408 11.6242 179.144 11.813C178.88 11.9829 178.681 12.2473 178.549 12.606C178.417 12.9648 178.351 13.399 178.351 13.9088V13.9655ZM198.47 23C197.187 23 196.054 22.8112 195.072 22.4336C194.109 22.056 193.354 21.4423 192.806 20.5927C192.277 19.7241 192.013 18.5819 192.013 17.1658V12.606H189.776C189.568 12.606 189.389 12.5399 189.238 12.4078C189.105 12.2567 189.039 12.0774 189.039 11.8697V9.00919C189.039 8.8015 189.105 8.63157 189.238 8.49941C189.389 8.34836 189.568 8.27283 189.776 8.27283H192.013V3.62811C192.013 3.42042 192.079 3.25049 192.211 3.11833C192.362 2.96728 192.542 2.89176 192.749 2.89176H196.856C197.064 2.89176 197.234 2.96728 197.366 3.11833C197.517 3.25049 197.592 3.42042 197.592 3.62811V8.27283H201.161C201.369 8.27283 201.539 8.34836 201.671 8.49941C201.822 8.63157 201.897 8.8015 201.897 9.00919V11.8697C201.897 12.0774 201.822 12.2567 201.671 12.4078C201.539 12.5399 201.369 12.606 201.161 12.606H197.592V16.6843C197.592 17.2319 197.706 17.6661 197.932 17.9871C198.159 18.2892 198.518 18.4402 199.009 18.4402H201.388C201.595 18.4402 201.765 18.5158 201.897 18.6668C202.048 18.799 202.124 18.9689 202.124 19.1766V22.2636C202.124 22.4713 202.048 22.6507 201.897 22.8017C201.765 22.9339 201.595 23 201.388 23H198.47ZM205.041 23C204.833 23 204.654 22.9339 204.503 22.8017C204.371 22.6507 204.305 22.4713 204.305 22.2636V9.00919C204.305 8.8015 204.371 8.63157 204.503 8.49941C204.654 8.34836 204.833 8.27283 205.041 8.27283H209.233C209.44 8.27283 209.62 8.34836 209.771 8.49941C209.922 8.63157 209.997 8.8015 209.997 9.00919V22.2636C209.997 22.4713 209.922 22.6507 209.771 22.8017C209.62 22.9339 209.44 23 209.233 23H205.041ZM205.098 6.43194C204.89 6.43194 204.711 6.36586 204.56 6.23369C204.427 6.08264 204.361 5.90327 204.361 5.69558V2.72183C204.361 2.51414 204.427 2.33477 204.56 2.18372C204.711 2.03267 204.89 1.95715 205.098 1.95715H209.176C209.384 1.95715 209.563 2.03267 209.714 2.18372C209.865 2.33477 209.941 2.51414 209.941 2.72183V5.69558C209.941 5.90327 209.865 6.08264 209.714 6.23369C209.563 6.36586 209.384 6.43194 209.176 6.43194H205.098ZM213.614 16.9109C213.425 16.9109 213.256 16.8448 213.104 16.7126C212.953 16.5616 212.878 16.3822 212.878 16.1745V12.8326C212.878 12.6249 212.953 12.455 213.104 12.3228C213.256 12.1718 213.425 12.0962 213.614 12.0962H222.677C222.885 12.0962 223.055 12.1718 223.187 12.3228C223.338 12.455 223.413 12.6249 223.413 12.8326V16.1745C223.413 16.3822 223.338 16.5616 223.187 16.7126C223.055 16.8448 222.885 16.9109 222.677 16.9109H213.614Z" fill="white"/>
<path d="M104.309 43C104.025 43 103.818 42.9245 103.686 42.7734C103.553 42.6224 103.44 42.4619 103.346 42.292L97.9363 29.1508C97.9174 29.0753 97.908 28.9998 97.908 28.9242C97.908 28.7543 97.9741 28.6033 98.1062 28.4711C98.2384 28.3389 98.3894 28.2728 98.5594 28.2728H102.581C102.845 28.2728 103.044 28.3484 103.176 28.4994C103.308 28.6316 103.402 28.7637 103.459 28.8959L106.178 36.571L108.925 28.8959C108.982 28.7637 109.076 28.6316 109.208 28.4994C109.34 28.3484 109.539 28.2728 109.803 28.2728H113.796C113.985 28.2728 114.136 28.3389 114.249 28.4711C114.382 28.6033 114.448 28.7543 114.448 28.9242C114.448 28.9998 114.438 29.0753 114.419 29.1508L109.038 42.292C108.963 42.4619 108.85 42.6224 108.698 42.7734C108.566 42.9245 108.359 43 108.075 43H104.309ZM122.994 43.2832C120.634 43.2832 118.756 42.679 117.358 41.4706C115.98 40.2434 115.272 38.3742 115.234 35.863C115.234 35.7875 115.234 35.6931 115.234 35.5798C115.234 35.4476 115.234 35.3532 115.234 35.2966C115.291 33.7294 115.631 32.4078 116.254 31.3316C116.896 30.2365 117.783 29.4057 118.916 28.8393C120.068 28.2728 121.418 27.9896 122.966 27.9896C124.703 27.9896 126.138 28.3389 127.271 29.0375C128.423 29.7172 129.282 30.633 129.848 31.7847C130.415 32.9176 130.698 34.192 130.698 35.6081V36.4011C130.698 36.5899 130.622 36.7598 130.471 36.9109C130.32 37.0619 130.141 37.1375 129.933 37.1375H121.21C121.21 37.1375 121.21 37.1563 121.21 37.1941C121.21 37.2319 121.21 37.2696 121.21 37.3074C121.21 37.7605 121.267 38.1665 121.38 38.5252C121.512 38.8651 121.71 39.1388 121.975 39.3465C122.239 39.5353 122.56 39.6297 122.938 39.6297C123.183 39.6297 123.391 39.592 123.561 39.5165C123.731 39.4409 123.882 39.3465 124.014 39.2332C124.146 39.1011 124.259 38.9784 124.354 38.8651C124.524 38.6951 124.656 38.5913 124.75 38.5535C124.864 38.4969 125.034 38.4686 125.26 38.4686H129.707C129.876 38.4686 130.018 38.5252 130.131 38.6385C130.264 38.7518 130.32 38.8934 130.301 39.0633C130.282 39.4032 130.122 39.8186 129.82 40.3095C129.518 40.7815 129.065 41.2441 128.46 41.6972C127.875 42.1504 127.12 42.528 126.195 42.8301C125.27 43.1322 124.203 43.2832 122.994 43.2832ZM121.21 33.9655H124.722V33.9088C124.722 33.399 124.656 32.9648 124.524 32.606C124.392 32.2473 124.193 31.9829 123.929 31.813C123.665 31.6242 123.344 31.5298 122.966 31.5298C122.588 31.5298 122.267 31.6242 122.003 31.813C121.739 31.9829 121.541 32.2473 121.408 32.606C121.276 32.9648 121.21 33.399 121.21 33.9088V33.9655ZM133.767 43C133.559 43 133.38 42.9339 133.229 42.8017C133.097 42.6507 133.031 42.4713 133.031 42.2636V29.0092C133.031 28.8015 133.097 28.6316 133.229 28.4994C133.38 28.3484 133.559 28.2728 133.767 28.2728H137.874C138.081 28.2728 138.251 28.3484 138.384 28.4994C138.535 28.6316 138.61 28.8015 138.61 29.0092V30.0571C139.177 29.5095 139.819 29.0753 140.536 28.7543C141.272 28.4333 142.075 28.2728 142.943 28.2728H144.218C144.425 28.2728 144.605 28.3484 144.756 28.4994C144.907 28.6316 144.982 28.8015 144.982 29.0092V32.6627C144.982 32.8704 144.907 33.0497 144.756 33.2008C144.605 33.3329 144.425 33.399 144.218 33.399H141.046C140.366 33.399 139.847 33.5784 139.488 33.9371C139.129 34.2959 138.95 34.8151 138.95 35.4948V42.2636C138.95 42.4713 138.874 42.6507 138.723 42.8017C138.591 42.9339 138.421 43 138.214 43H133.767ZM153.29 43.2832C152.006 43.2832 150.911 43.151 150.005 42.8867C149.098 42.6035 148.353 42.2542 147.767 41.8388C147.201 41.4234 146.785 40.9986 146.521 40.5644C146.257 40.1112 146.115 39.7147 146.096 39.3749C146.077 39.1672 146.134 38.9972 146.266 38.8651C146.417 38.714 146.578 38.6385 146.748 38.6385H150.854C150.873 38.6385 150.902 38.6479 150.939 38.6668C150.977 38.6668 151.015 38.6857 151.053 38.7235C151.298 38.799 151.525 38.9217 151.732 39.0916C151.959 39.2616 152.204 39.4126 152.469 39.5448C152.752 39.6769 153.082 39.743 153.46 39.743C153.781 39.743 154.064 39.6769 154.31 39.5448C154.574 39.3937 154.706 39.186 154.706 38.9217C154.706 38.6951 154.63 38.4969 154.479 38.327C154.347 38.157 154.055 37.9965 153.601 37.8455C153.148 37.6756 152.421 37.4962 151.421 37.3074C150.496 37.1186 149.646 36.8448 148.872 36.4861C148.117 36.1084 147.512 35.6081 147.059 34.985C146.625 34.362 146.408 33.5973 146.408 32.691C146.408 31.9169 146.663 31.1711 147.173 30.4536C147.682 29.7361 148.438 29.1508 149.438 28.6977C150.458 28.2256 151.704 27.9896 153.177 27.9896C154.291 27.9896 155.272 28.1218 156.122 28.3861C156.991 28.6505 157.718 28.9809 158.303 29.3774C158.907 29.7739 159.36 30.1987 159.662 30.6518C159.983 31.105 160.153 31.5109 160.172 31.8697C160.191 32.0774 160.134 32.2567 160.002 32.4078C159.87 32.5399 159.719 32.606 159.549 32.606H155.839C155.782 32.606 155.716 32.606 155.641 32.606C155.584 32.5871 155.537 32.5588 155.499 32.5211C155.235 32.4644 154.989 32.3606 154.763 32.2095C154.555 32.0396 154.328 31.8885 154.083 31.7564C153.837 31.6053 153.526 31.5298 153.148 31.5298C152.827 31.5298 152.563 31.6053 152.355 31.7564C152.167 31.9074 152.072 32.1057 152.072 32.3511C152.072 32.5588 152.138 32.7476 152.27 32.9176C152.403 33.0875 152.705 33.248 153.177 33.399C153.649 33.5501 154.394 33.7106 155.414 33.8805C156.736 34.0882 157.793 34.4375 158.586 34.9284C159.379 35.4004 159.945 35.9574 160.285 36.5993C160.625 37.2413 160.795 37.8833 160.795 38.5252C160.795 39.4881 160.502 40.3283 159.917 41.0458C159.351 41.7633 158.501 42.3203 157.368 42.7168C156.254 43.0944 154.895 43.2832 153.29 43.2832ZM170.234 43.2832C167.874 43.2832 165.995 42.679 164.598 41.4706C163.219 40.2434 162.511 38.3742 162.474 35.863C162.474 35.7875 162.474 35.6931 162.474 35.5798C162.474 35.4476 162.474 35.3532 162.474 35.2966C162.53 33.7294 162.87 32.4078 163.493 31.3316C164.135 30.2365 165.023 29.4057 166.155 28.8393C167.307 28.2728 168.657 27.9896 170.205 27.9896C171.942 27.9896 173.377 28.3389 174.51 29.0375C175.662 29.7172 176.521 30.633 177.088 31.7847C177.654 32.9176 177.937 34.192 177.937 35.6081V36.4011C177.937 36.5899 177.862 36.7598 177.711 36.9109C177.56 37.0619 177.38 37.1375 177.172 37.1375H168.449C168.449 37.1375 168.449 37.1563 168.449 37.1941C168.449 37.2319 168.449 37.2696 168.449 37.3074C168.449 37.7605 168.506 38.1665 168.619 38.5252C168.752 38.8651 168.95 39.1388 169.214 39.3465C169.478 39.5353 169.799 39.6297 170.177 39.6297C170.423 39.6297 170.63 39.592 170.8 39.5165C170.97 39.4409 171.121 39.3465 171.253 39.2332C171.385 39.1011 171.499 38.9784 171.593 38.8651C171.763 38.6951 171.895 38.5913 171.99 38.5535C172.103 38.4969 172.273 38.4686 172.499 38.4686H176.946C177.116 38.4686 177.257 38.5252 177.371 38.6385C177.503 38.7518 177.56 38.8934 177.541 39.0633C177.522 39.4032 177.361 39.8186 177.059 40.3095C176.757 40.7815 176.304 41.2441 175.7 41.6972C175.114 42.1504 174.359 42.528 173.434 42.8301C172.509 43.1322 171.442 43.2832 170.234 43.2832ZM168.449 33.9655H171.961V33.9088C171.961 33.399 171.895 32.9648 171.763 32.606C171.631 32.2473 171.433 31.9829 171.168 31.813C170.904 31.6242 170.583 31.5298 170.205 31.5298C169.828 31.5298 169.507 31.6242 169.242 31.813C168.978 31.9829 168.78 32.2473 168.648 32.606C168.516 32.9648 168.449 33.399 168.449 33.9088V33.9655Z" fill="#FFD84F"/>
<mask id="mask0_156_118" style="mask-type:luminance" maskUnits="userSpaceOnUse" x="0" y="0" width="87" height="48">
<path d="M86.6535 0H0V47.3306H86.6535V0Z" fill="white"/>
</mask>
<g mask="url(#mask0_156_118)">
<path d="M53.4821 0.761597V17.6188L36.271 42.1454L36.2631 42.1533L33.5808 45.9762V29.1112L53.4821 0.761597Z" fill="url(#paint0_linear_156_118)"/>
<path d="M86.2915 0.504028V47.2446H66.3905V28.8536L86.2915 0.504028Z" fill="#E6B938"/>
<path d="M54.0246 -0.00012207L51.4366 2.26532L51.4287 2.27319C51.4025 2.29103 51.3787 2.31218 51.3579 2.33612H51.3501L1.62814 45.9067H1.62106C1.59746 45.9295 1.58173 45.9453 1.57387 45.9453V45.9539C1.56273 45.9609 1.55221 45.9688 1.5424 45.9775L0.00063324 47.3305L3.96517 41.6905C3.98091 41.659 4.0045 41.6354 4.02024 41.6039L33.2273 -0.00012207H54.0246Z" fill="#E33D5C"/>
<path d="M54.0247 -0.00012207L53.4819 0.762895L33.5806 29.1125L20.7981 47.3305H7.62939e-06L1.62043 45.9067H1.6283L51.3502 2.33612L53.4819 0.47184L54.0247 -0.00012207Z" fill="#E33D5C"/>
<path d="M86.6542 -0.00012207L86.2923 0.314519L83.0829 3.13139L83.0751 3.13926L83.0436 3.16206C83.0357 3.17858 83.0279 3.17858 83.02 3.18645C83.0121 3.19432 83.0121 3.19431 83.0043 3.19431V3.20219L82.9413 3.24938C82.9138 3.26766 82.8871 3.28875 82.8627 3.31231L66.3913 17.7467L53.4829 29.0582L35.2807 44.995L35.2177 45.0579C35.196 45.0809 35.1724 45.102 35.1469 45.1209L33.5816 46.4896L32.6298 47.3313L33.5816 45.9783L36.2639 42.1553L36.2718 42.1475L53.4829 17.62L65.8564 -0.00012207H86.6542Z" fill="#E6B938"/>
<path d="M86.6541 -0.00012207L86.2923 0.503311L66.3913 28.8529L53.483 47.244L53.4279 47.3305H32.629L33.5808 46.4888L35.2799 44.9942L53.4822 29.0574L66.3905 17.7459L82.8619 3.31152L82.9405 3.24859L82.9484 3.24073L83.0034 3.20139V3.19353C83.0113 3.19353 83.0113 3.18567 83.0192 3.18567L86.2915 0.313739L86.6541 -0.00012207Z" fill="#E6B938"/>
<g style="mix-blend-mode:multiply" opacity="0.24">
<path d="M53.4821 0.763184V15.7482L33.5808 30.7411V29.1128L53.4821 0.763184Z" fill="black"/>
</g>
<g style="mix-blend-mode:multiply" opacity="0.24">
<path d="M86.2916 0.503143V15.3151L86.1736 15.4016L66.3905 30.3079V28.8527L86.2916 0.503143Z" fill="black"/>
</g>
<g style="mix-blend-mode:screen" opacity="0.4">
<path d="M83.019 3.18555C83.019 3.19339 83.0112 3.19338 83.0033 3.20123L82.9406 3.24829C82.9602 3.22781 82.9806 3.20941 83.0033 3.19338C83.0112 3.19338 83.0112 3.18555 83.019 3.18555Z" fill="white"/>
</g>
<g style="mix-blend-mode:multiply" opacity="0.25">
<path d="M86.6541 -0.00012207C86.5361 0.188665 86.4181 0.377446 86.2923 0.558367C85.1124 2.39904 83.8931 4.224 82.6896 6.04894C81.3759 8.06268 80.0151 10.0607 78.67 12.0587C75.9802 16.0537 73.2637 20.0339 70.5211 23.9995L66.3913 29.9384V28.8529L53.483 47.244L53.4279 47.3305H32.629C36.098 47.181 39.5591 47.1173 43.0281 47.008L53.1597 46.8349C54.4576 44.9077 55.787 42.9955 57.1006 41.0769L61.2303 35.1458L65.3758 29.2218L69.5527 23.3222C72.3452 19.397 75.1692 15.4901 78.0246 11.6017C79.4401 9.65793 80.856 7.70792 82.3112 5.78071C83.7507 3.84642 85.1824 1.91371 86.6541 -0.00012207Z" fill="black"/>
</g>
<g style="mix-blend-mode:multiply" opacity="0.25">
<path d="M86.2916 13.2686V47.2425H66.3905C68.0503 47.1403 69.71 47.0773 71.3698 47.0065C73.0296 46.9358 74.6815 46.8886 76.3412 46.8335C79.4638 46.747 82.5787 46.6998 85.7016 46.6604C85.678 44.0245 85.6623 41.3901 85.6701 38.7471C85.678 35.9153 85.6937 33.0835 85.7409 30.2517C85.7881 27.4198 85.8353 24.5951 85.9297 21.7641C85.9612 20.3482 86.0241 18.9323 86.0871 17.5164C86.1107 16.8084 86.1421 16.1091 86.1736 15.4012C86.205 14.6932 86.2444 13.9758 86.2916 13.2686Z" fill="black"/>
</g>
<g style="mix-blend-mode:overlay">
<path d="M80.5186 0.000670113C78.0725 0.125742 75.6261 0.181584 73.1876 0.275978C70.8199 0.354639 68.46 0.386109 66.1002 0.441172C64.9439 2.16386 63.7954 3.88654 62.6155 5.58563L58.9577 10.8874L55.2685 16.1656L51.5557 21.428L47.7957 26.659L43.9963 31.8507C42.722 33.5812 41.4634 35.3189 40.1655 37.0266C38.8676 38.7343 37.5933 40.4562 36.2718 42.1475L53.4829 17.62L65.8563 -0.00012207L80.5186 0.000670113Z" fill="#E6B938"/>
</g>
</g>
<defs>
<linearGradient id="paint0_linear_156_118" x1="43.5315" y1="39.4653" x2="43.5315" y2="14.5068" gradientUnits="userSpaceOnUse">
<stop stop-color="#F58033"/>
<stop offset="1" stop-color="#A53826"/>
</linearGradient>
</defs>
</svg>
