<svg width="100" height="100" viewBox="0 0 100 100" fill="none" xmlns="http://www.w3.org/2000/svg">
<path d="M86.2677 46.2158V55.9144C86.2677 57.3168 85.9795 58.7087 85.4033 60.0868C84.053 63.3151 81.2378 66.1615 76.9648 68.6295C73.8129 70.4519 70.6055 71.7258 67.346 72.4548C64.0865 73.1837 61.0041 73.3851 58.0917 73.0623C55.1863 72.7394 52.6072 71.9272 50.3648 70.6359C48.5077 69.5633 47.2997 68.4178 46.7408 67.2063C46.5222 66.7342 46.4111 66.2587 46.4111 65.7796V56.081C46.4111 56.5566 46.5222 57.0321 46.7408 57.5077C47.2997 58.7192 48.5077 59.8647 50.3648 60.9373C52.6072 62.232 55.1863 63.0408 58.0917 63.3637C61.0006 63.6865 64.0865 63.4817 67.346 62.7562C70.6055 62.0272 73.8129 60.7533 76.9648 58.9309C81.2378 56.4629 84.053 53.6165 85.4033 50.3882C85.9795 49.0102 86.2677 47.6147 86.2677 46.2158Z" fill="#EBEDEF"/>
<path d="M25.1741 49.8045C26.1877 51.3666 27.6907 52.8488 29.6728 54.2512C30.3775 54.7476 31.1446 55.237 31.9708 55.716C35.7197 57.8821 39.9789 59.4511 44.7448 60.4195L41.0653 64.7898C38.7188 64.3247 36.2022 63.5818 33.5224 62.5578C30.8391 61.5373 28.378 60.3744 26.1356 59.0831C21.0572 56.1499 17.6311 52.9564 15.8608 49.5095C14.9201 47.6767 14.448 45.8543 14.448 44.0492C14.448 42.456 14.8125 40.88 15.5449 39.311C17.107 35.9613 20.1825 32.9622 24.7714 30.3101C29.3222 27.6824 34.5013 25.926 40.3017 25.0478C46.0986 24.1696 52.0066 24.2494 58.0153 25.2908C64.024 26.3321 69.5849 28.3316 74.705 31.2856C79.5751 34.0973 82.9144 37.1762 84.716 40.526C85.7469 42.4421 86.2641 44.3374 86.2641 46.2188C86.2641 47.6177 85.976 49.0096 85.3998 50.3912C84.0495 53.6194 81.2343 56.4658 76.9613 58.9338C73.8094 60.7528 70.602 62.0302 67.3425 62.7591C64.083 63.4881 61.0006 63.6894 58.0882 63.3666C55.1828 63.0438 52.6037 62.2315 50.3613 60.9402C48.5042 59.8676 47.2962 58.7221 46.7373 57.5106C46.5186 57.0351 46.4076 56.5595 46.4076 56.084C46.4076 55.3377 46.6748 54.5913 47.2094 53.8381C42.4434 54.6087 38.0801 53.8485 34.1229 51.561C32.0541 50.3669 30.6795 48.9367 29.9956 47.2671C29.7492 46.6665 29.6138 46.0626 29.5721 45.4482C29.5652 45.3579 29.5617 45.2711 29.5617 45.1809C29.5583 44.1742 29.8186 43.1502 30.3636 42.1088C31.2904 40.342 33.0538 38.7036 35.6468 37.2075C38.2398 35.7114 41.0619 34.6874 44.1096 34.1424C47.1573 33.5974 50.1148 33.5245 52.989 33.9306C55.8632 34.3368 58.352 35.1456 60.4556 36.357C63.5415 38.1378 64.9751 40.1198 64.7669 42.3067L67.3425 40.821L75.9095 45.7675L59.8759 55.0252C58.7547 55.6744 58.1577 56.261 58.0882 56.7886C58.0188 57.3128 58.3347 57.7779 59.0359 58.1806C61.2436 59.458 65.0619 58.5277 70.4944 55.3897C72.8965 54.0012 74.698 52.4878 75.9095 50.8563C76.3746 50.228 76.7495 49.5754 77.0376 48.9124C78.072 46.5138 77.8985 44.077 76.5135 41.5986C75.1284 39.1201 72.5806 36.8083 68.8629 34.6631C65.1834 32.5387 61.1255 31.1051 56.6928 30.3692C52.26 29.6298 47.862 29.609 43.5021 30.3067C39.1388 31.0044 35.2233 32.3547 31.7521 34.3576C28.2114 36.4021 25.8128 38.6758 24.5528 41.1855C23.2892 43.6952 23.2927 46.2118 24.5528 48.7423C24.7437 49.0964 24.945 49.4505 25.1741 49.8045ZM57.755 44.8615C57.8418 43.6987 57.1163 42.6712 55.5716 41.7825C54.0304 40.8904 52.26 40.4774 50.2641 40.5364C48.2647 40.5989 46.3242 41.1716 44.429 42.265C42.5371 43.3585 41.5305 44.4866 41.4055 45.646C41.284 46.8089 41.9956 47.8363 43.5369 48.7285C45.0781 49.6171 46.8588 50.0371 48.8721 49.9885C50.8854 49.9364 52.8571 49.3533 54.7871 48.2425C56.6754 47.156 57.6682 46.0278 57.755 44.8615Z" fill="white"/>
<path d="M76.5204 41.5884C77.9054 44.0634 78.079 46.5037 77.0446 48.9023C76.7564 49.5688 76.3815 50.2214 75.9164 50.8462V45.7574L67.3494 40.8109L64.7738 42.2966C64.9855 40.1097 63.5484 38.1276 60.4625 36.3469C58.3624 35.1354 55.8701 34.3266 52.9959 33.9205C50.1217 33.5178 47.1643 33.5873 44.1165 34.1322C41.0688 34.6772 38.2467 35.7012 35.6537 37.1973C33.0607 38.6934 31.2973 40.3318 30.3705 42.0987C29.8255 43.1401 29.5582 44.1641 29.5686 45.1707L29.5721 45.4415C27.6525 46.8022 26.1877 48.2532 25.1776 49.7979C24.9485 49.4438 24.7437 49.0897 24.5631 48.7287C23.3031 46.2017 23.2996 43.6816 24.5631 41.1719C25.8232 38.6622 28.2218 36.3885 31.7625 34.344C35.2302 32.3411 39.1457 30.9908 43.5125 30.2931C47.8724 29.5954 52.2704 29.6127 56.7032 30.3556C61.1359 31.0915 65.1938 32.5251 68.8733 34.6495C72.584 36.7981 75.1354 39.11 76.5204 41.5884Z" fill="#3A3A3A"/>
<path d="M75.9128 45.7573V50.8461C74.7048 52.4776 72.8998 53.9945 70.4977 55.3796C65.0652 58.5141 61.2469 59.4478 59.0392 58.1704C58.338 57.7678 58.0221 57.2991 58.0915 56.7785C58.161 56.2508 58.758 55.6677 59.8792 55.0151L75.9128 45.7573Z" fill="#3A3A3A"/>
<path d="M55.5714 41.7864C57.1126 42.6751 57.8416 43.6991 57.7548 44.8654C57.668 46.0283 56.6753 47.1564 54.7834 48.2499C52.8569 49.3607 50.8853 49.9438 48.8685 49.9959C46.8552 50.0445 45.0744 49.6245 43.5332 48.7358C41.992 47.8472 41.2804 46.8197 41.4019 45.6534C41.5234 44.494 42.5335 43.3659 44.4253 42.2724C46.3206 41.179 48.2645 40.6028 50.2604 40.5438C52.2599 40.4813 54.0302 40.8943 55.5714 41.7864Z" fill="#3A3A3A"/>
<path d="M47.2163 53.8323C46.6818 54.5856 46.4145 55.3319 46.4145 56.0782V63.6455C45.8521 63.7149 45.2967 63.7635 44.7448 63.7947V60.4172C39.9788 59.4488 35.7231 57.8798 31.9707 55.7137C31.1446 55.2347 30.3774 54.7487 29.6728 54.2489L29.5686 45.4459L29.5756 45.4424C29.6138 46.0568 29.7526 46.6608 29.9991 47.2613C30.6829 48.931 32.0575 50.3611 34.1263 51.5552C38.0835 53.8427 42.4503 54.6029 47.2163 53.8323Z" fill="#3A3A3A"/>
<path d="M44.7446 63.7975V70.1151L41.0651 74.4888V64.7902L44.7446 60.4165V63.7975Z" fill="#D7DCE0"/>
<path d="M41.0651 64.7904V74.489C38.7186 74.0238 36.202 73.281 33.5222 72.257C30.8389 71.2364 28.3778 70.077 26.1354 68.7823C21.057 65.8491 17.6309 62.659 15.8606 59.2086C14.9199 57.3758 14.4478 55.5569 14.4478 53.7484V44.0498C14.4478 45.8548 14.9199 47.6738 15.8606 49.51C17.6274 52.957 21.057 56.1505 26.1354 59.0837C28.3778 60.3784 30.8389 61.5378 33.5222 62.5584C36.202 63.5789 38.7186 64.3217 41.0651 64.7904Z" fill="#EBEDEF"/>
<path d="M29.5755 45.4416L29.5685 45.4451L29.5651 45.1743C29.5651 45.2646 29.5685 45.3513 29.5755 45.4416Z" fill="white"/>
<path d="M29.5755 45.4424L29.5685 45.4459C27.6489 46.8066 26.1841 48.2575 25.174 49.8022" stroke="#3A3A3A" stroke-miterlimit="10" stroke-linecap="round" stroke-linejoin="round"/>
<path d="M75.9128 50.8458C76.378 50.2175 76.7529 49.565 77.041 48.902C78.0754 46.5033 77.9018 44.0665 76.5168 41.5881C75.1318 39.1096 72.5839 36.7978 68.8663 34.6526C65.1868 32.5282 61.1289 31.0946 56.6962 30.3587C52.2634 29.6193 47.8654 29.5985 43.5055 30.2962C39.1422 30.9939 35.2267 32.3442 31.7554 34.3471C28.2148 36.3917 25.8162 38.6653 24.5561 41.175C23.2926 43.6847 23.2961 46.2013 24.5561 48.7319C24.7366 49.0929 24.9414 49.4504 25.1705 49.801C26.1876 51.3631 27.6872 52.8453 29.6692 54.2476C30.3739 54.744 31.141 55.2335 31.9672 55.7125C35.7161 57.8785 39.9753 59.4475 44.7413 60.416L41.0618 64.7863C38.7152 64.3211 36.1986 63.5783 33.5188 62.5543C30.8356 61.5337 28.3745 60.3709 26.1321 59.0796C21.0537 56.1464 17.6276 52.9529 15.8572 49.5059C14.9165 47.6731 14.4444 45.8507 14.4444 44.0457" stroke="#3A3A3A" stroke-miterlimit="10" stroke-linecap="round" stroke-linejoin="round"/>
<path d="M86.2676 46.2154C86.2676 47.6143 85.9795 49.0062 85.4032 50.3878C84.0529 53.616 81.2378 56.4624 76.9647 58.9304C73.8128 60.7494 70.6054 62.0268 67.346 62.7557C64.0865 63.4847 61.004 63.686 58.0917 63.3632C55.1863 63.0404 52.6071 62.2281 50.3647 60.9368C48.5076 59.8642 47.2996 58.7187 46.7408 57.5072C46.5221 57.0317 46.411 56.5561 46.411 56.0806C46.411 55.3343 46.6783 54.5879 47.2129 53.8347C42.4469 54.6053 38.0836 53.8451 34.1264 51.5576C32.0575 50.3635 30.6829 48.9333 29.9991 47.2637C29.7526 46.6631 29.6173 46.0592 29.5756 45.4447C29.5687 45.3545 29.5652 45.2677 29.5652 45.1775C29.5617 44.1708 29.8221 43.1468 30.367 42.1054C31.2939 40.3386 33.0572 38.7002 35.6502 37.2041C38.2432 35.708 41.0653 34.684 44.1131 34.139C47.1608 33.594 50.1183 33.5211 52.9925 33.9272C55.8666 34.3334 58.3555 35.1422 60.459 36.3536C63.545 38.1344 64.9786 40.1164 64.7703 42.3033L67.346 40.8176L75.9129 45.7641L59.8794 55.0218C58.7581 55.671 58.1611 56.2576 58.0917 56.7852C58.0222 57.3094 58.3381 57.7745 59.0393 58.1772C61.247 59.4546 65.0654 58.5243 70.4978 55.3863C72.8999 53.9978 74.7049 52.4844 75.9129 50.8529" stroke="#3A3A3A" stroke-miterlimit="10" stroke-linecap="round" stroke-linejoin="round"/>
<path d="M14.4482 44.0492C14.4482 42.456 14.8127 40.88 15.5451 39.311C17.1071 35.9613 20.1826 32.9622 24.7716 30.3101C29.3224 27.6824 34.5014 25.926 40.3019 25.0478C46.0988 24.1696 52.0068 24.2494 58.0155 25.2908C64.0242 26.3321 69.5851 28.3316 74.7051 31.2856C79.5753 34.0973 82.9146 37.1762 84.7161 40.526C85.7471 42.4421 86.2643 44.3374 86.2643 46.2188" stroke="#3A3A3A" stroke-miterlimit="10" stroke-linecap="round" stroke-linejoin="round"/>
<path d="M48.8687 49.9963C50.882 49.9442 52.8536 49.3611 54.7836 48.2503C56.6754 47.1568 57.6682 46.0287 57.755 44.8658C57.8418 43.703 57.1163 42.6755 55.5716 41.7869C54.0304 40.8948 52.26 40.4817 50.2641 40.5407C48.2647 40.6032 46.3243 41.1759 44.429 42.2694C42.5371 43.3628 41.5305 44.4909 41.4055 45.6503C41.284 46.8132 41.9956 47.8407 43.5369 48.7328C45.0781 49.6214 46.8554 50.0449 48.8687 49.9963Z" stroke="#3A3A3A" stroke-miterlimit="10" stroke-linecap="round" stroke-linejoin="round"/>
<path d="M14.448 44.0498V53.7484C14.448 55.5569 14.9201 57.3758 15.8608 59.2086C17.6277 62.659 21.0572 65.8491 26.1356 68.7823C28.378 70.077 30.8391 71.2364 33.5224 72.257C36.2022 73.2775 38.7188 74.0238 41.0654 74.489L44.7448 70.1187V60.4201" stroke="#3A3A3A" stroke-miterlimit="10" stroke-linecap="round" stroke-linejoin="round"/>
<path d="M41.0652 74.4891V64.7905" stroke="#3A3A3A" stroke-miterlimit="10" stroke-linecap="round" stroke-linejoin="round"/>
<path d="M46.4144 63.6479C45.8521 63.7174 45.2967 63.766 44.7447 63.7972" stroke="#3A3A3A" stroke-miterlimit="10" stroke-linecap="round" stroke-linejoin="round"/>
<path d="M46.4145 56.0771V65.7757C46.4145 66.2547 46.5256 66.7303 46.7442 67.2024C47.3031 68.4138 48.5111 69.5594 50.3682 70.632C52.6106 71.9267 55.1897 72.7355 58.0951 73.0583C61.004 73.3812 64.0899 73.1764 67.3494 72.4509C70.6089 71.7219 73.8163 70.448 76.9682 68.6256C81.2412 66.1576 84.0564 63.3112 85.4067 60.0829C85.9829 58.7014 86.271 57.3129 86.271 55.9105V46.2119" stroke="#3A3A3A" stroke-miterlimit="10" stroke-linecap="round" stroke-linejoin="round"/>
<path d="M29.5651 45.1743L29.6728 54.2481" stroke="#3A3A3A" stroke-miterlimit="10" stroke-linecap="round" stroke-linejoin="round"/>
<path d="M75.9129 45.7573V50.8461" stroke="#3A3A3A" stroke-miterlimit="10" stroke-linecap="round" stroke-linejoin="round"/>
</svg>
