<svg width="100" height="100" viewBox="0 0 100 100" fill="none" xmlns="http://www.w3.org/2000/svg">
<path d="M85.3884 34.0295V77.3044C85.3884 78.1009 84.9068 78.4692 84.3087 78.1229L46.4923 56.2918C45.8942 55.9487 45.4126 55.0232 45.4126 54.2205V10.9487C45.4126 10.1523 45.8942 9.78398 46.4923 10.1303L84.3055 31.9613C84.9036 32.3076 85.3884 33.2331 85.3884 34.0295ZM77.2793 51.7336C77.2793 44.1565 71.9624 34.9456 65.3989 31.1586C58.8386 27.3716 53.5217 30.444 53.5217 38.0148C53.5217 45.5919 58.8386 54.8029 65.3989 58.593C71.9624 62.38 77.2793 59.3076 77.2793 51.7336ZM58.5868 23.4524C58.5868 23.0243 58.2814 22.4954 57.9099 22.2845C57.5353 22.0673 57.2331 22.2436 57.2331 22.6717C57.2331 23.103 57.5322 23.6287 57.9099 23.8396C58.2814 24.0568 58.5868 23.8837 58.5868 23.4524ZM55.0673 21.4188C55.0673 20.9907 54.762 20.465 54.3905 20.2509C54.0159 20.0337 53.7137 20.21 53.7137 20.6381C53.7137 21.0694 54.0159 21.5951 54.3905 21.8092C54.762 22.0264 55.0673 21.8501 55.0673 21.4188ZM51.5448 19.3884C51.5448 18.9571 51.2457 18.4314 50.868 18.2173C50.4965 18.0001 50.1912 18.1764 50.1912 18.6077C50.1912 19.0358 50.4965 19.5615 50.868 19.7756C51.2426 19.9928 51.5448 19.8165 51.5448 19.3884Z" fill="white"/>
<path d="M65.3988 31.1583C71.9622 34.9453 77.2791 44.1562 77.2791 51.7333C77.2791 59.3104 71.9622 62.3797 65.3988 58.5927C58.8384 54.8025 53.5215 45.5916 53.5215 38.0145C53.5215 30.4437 58.8384 27.3713 65.3988 31.1583ZM72.0315 47.4395C72.0315 46.5297 71.7324 45.4468 71.1312 44.4049C69.9287 42.3209 67.9801 41.1971 66.7776 41.8896L65.3988 42.6861L64.0231 40.2999C63.0598 38.6315 61.6212 37.5801 60.4691 37.5801C60.1795 37.5801 59.9087 37.643 59.6695 37.7816C58.467 38.4773 58.467 40.728 59.6695 42.812L65.3988 52.7375L71.1312 49.4321C71.7324 49.0827 72.0315 48.3492 72.0315 47.4395Z" fill="#EBEDEF"/>
<path d="M71.1312 44.4025C71.7324 45.4413 72.0315 46.5273 72.0315 47.4371C72.0315 48.3468 71.7324 49.0834 71.1312 49.4297L65.3988 52.7414L59.6695 42.8159C58.467 40.7319 58.467 38.4811 59.6695 37.7854C59.9087 37.6469 60.1795 37.584 60.4691 37.584C61.6212 37.584 63.0598 38.6354 64.0231 40.3038L65.3988 42.69L66.7776 41.8935C67.9801 41.1947 69.9287 42.3185 71.1312 44.4025Z" fill="#3A3A3A"/>
<path d="M58.5867 23.4524C58.5867 23.8837 58.2814 24.0569 57.9099 23.8396C57.5353 23.6256 57.2331 23.103 57.2331 22.6718C57.2331 22.2436 57.5322 22.0673 57.9099 22.2846C58.2814 22.4955 58.5867 23.0212 58.5867 23.4524Z" fill="white"/>
<path d="M54.3903 20.249C54.7617 20.4662 55.0671 20.9888 55.0671 21.4169C55.0671 21.8482 54.7617 22.0244 54.3903 21.8072C54.0157 21.59 53.7135 21.0675 53.7135 20.6362C53.7135 20.2081 54.0157 20.0349 54.3903 20.249Z" fill="white"/>
<path d="M51.5447 19.3852C51.5447 19.8133 51.2456 19.9896 50.8679 19.7724C50.4964 19.5552 50.1911 19.0326 50.1911 18.6045C50.1911 18.1732 50.4964 17.997 50.8679 18.2142C51.2425 18.4282 51.5447 18.9508 51.5447 19.3852Z" fill="white"/>
<path d="M84.3055 78.1229L46.4923 56.2918C45.8942 55.9487 45.4126 55.0232 45.4126 54.2205V10.9487C45.4126 10.1523 45.8942 9.78398 46.4923 10.1303L84.3055 31.9613C84.9036 32.3044 85.3853 33.2299 85.3853 34.0295V77.3044C85.3884 78.1009 84.9036 78.4692 84.3055 78.1229Z" stroke="#3A3A3A" stroke-miterlimit="10" stroke-linecap="round" stroke-linejoin="round"/>
<path d="M65.3988 52.7375L59.6695 42.812C58.467 40.728 58.467 38.4772 59.6695 37.7815C59.9087 37.643 60.1795 37.5801 60.4691 37.5801C61.6212 37.5801 63.0598 38.6315 64.0231 40.2999L65.3988 42.6861L66.7776 41.8896C67.9801 41.1971 69.9287 42.3209 71.1312 44.4048C71.7324 45.4437 72.0315 46.5297 72.0315 47.4395C72.0315 48.3492 71.7324 49.0858 71.1312 49.4321L65.3988 52.7375Z" stroke="#3A3A3A" stroke-miterlimit="10" stroke-linecap="round" stroke-linejoin="round"/>
<path d="M51.5447 19.3852C51.5447 19.8133 51.2456 19.9896 50.8679 19.7724C50.4964 19.5552 50.1911 19.0326 50.1911 18.6045C50.1911 18.1732 50.4964 17.997 50.8679 18.2142C51.2425 18.4282 51.5447 18.9508 51.5447 19.3852Z" stroke="#3A3A3A" stroke-miterlimit="10" stroke-linecap="round" stroke-linejoin="round"/>
<path d="M55.0671 21.4202C55.0671 21.8515 54.7617 22.0278 54.3903 21.8106C54.0157 21.5934 53.7135 21.0708 53.7135 20.6395C53.7135 20.2114 54.0157 20.0351 54.3903 20.2523C54.7617 20.4664 55.0671 20.9889 55.0671 21.4202Z" stroke="#3A3A3A" stroke-miterlimit="10" stroke-linecap="round" stroke-linejoin="round"/>
<path d="M58.5867 23.4524C58.5867 23.8837 58.2814 24.0569 57.9099 23.8396C57.5353 23.6256 57.2331 23.103 57.2331 22.6718C57.2331 22.2436 57.5322 22.0673 57.9099 22.2846C58.2814 22.4955 58.5867 23.0212 58.5867 23.4524Z" stroke="#3A3A3A" stroke-miterlimit="10" stroke-linecap="round" stroke-linejoin="round"/>
<path d="M77.2791 51.7333C77.2791 44.1562 71.9622 34.9453 65.3988 31.1583C58.8384 27.3713 53.5215 30.4437 53.5215 38.0145C53.5215 45.5916 58.8384 54.8025 65.3988 58.5927C71.9622 62.3797 77.2791 59.3073 77.2791 51.7333Z" stroke="#3A3A3A" stroke-linecap="round" stroke-linejoin="round" stroke-dasharray="1.02 1.02"/>
<path d="M57.6276 45.0589C58.4196 45.5118 58.8395 46.5798 58.6715 48.0347L50.8421 52.5554C48.6252 53.8333 46.6694 56.6291 46.0154 59.4519L42.6586 73.9289C42.0257 76.6587 43.5496 78.1796 45.6884 76.9647L38.2699 81.2484C36.812 82.0883 35.3722 82.5683 34.0402 82.6583C32.7083 82.7483 31.2684 83.2282 29.8135 84.0682L27.6957 85.2921V61.1078L28.2236 60.8048C29.5526 60.0368 30.8455 58.7859 31.9044 57.247C36.0141 51.2655 38.6209 44.3479 39.3349 36.0775C39.5299 33.7977 41.7977 31.5988 43.0816 32.3397C43.1386 32.3727 43.1926 32.4117 43.2466 32.4567C45.5145 34.3616 45.4244 39.3803 44.6925 45.2959C44.4345 47.3957 44.0925 49.6096 43.7446 51.8414L55.0478 45.3169C56.0737 44.7229 56.9767 44.6809 57.6276 45.0589Z" fill="white"/>
<path d="M50.8422 52.5563L58.6717 48.0356C58.6417 48.2996 58.5907 48.5786 58.5187 48.8666L57.1928 54.2482L45.6826 60.8928L46.0156 59.4529C46.6695 56.6301 48.6254 53.8342 50.8422 52.5563Z" fill="white"/>
<path d="M57.1928 54.2476L55.6539 60.4931L44.2456 67.0807L45.6825 60.8921L57.1928 54.2476Z" fill="white"/>
<path d="M52.4351 42.0563L57.6308 45.0561L57.6278 45.0591C56.9768 44.6811 56.0739 44.7231 55.0479 45.317L43.7447 51.8416C44.0927 49.6097 44.4347 47.3959 44.6926 45.296L49.8523 42.3172C50.8782 41.7233 51.7812 41.6813 52.4351 42.0563Z" fill="#D7DCE0"/>
<path d="M55.6538 60.4932L54.1149 66.7417L42.8117 73.2663L44.2456 67.0807L55.6538 60.4932Z" fill="white"/>
<path d="M54.1149 66.7422L53.662 68.5871C53.014 71.2149 51.1871 73.7887 49.1323 74.9766L45.7155 76.9505C45.7065 76.9565 45.6975 76.9595 45.6885 76.9655C43.5496 78.1804 42.0258 76.6595 42.6587 73.9297L42.8117 73.2667L54.1149 66.7422Z" fill="white"/>
<path d="M37.8862 29.3397L43.0818 32.3395C41.7979 31.6016 39.53 33.7974 39.3351 36.0773C38.6211 44.3477 36.0143 51.2652 31.9046 57.2468C30.8456 58.7857 29.5527 60.0366 28.2238 60.8046L27.6959 61.1076L22.5002 58.1078L23.0252 57.8048C24.3571 57.0368 25.65 55.7859 26.7089 54.247C30.8186 48.2625 33.4255 41.3479 34.1364 33.0775C34.3344 30.7977 36.6053 28.5988 37.8862 29.3397Z" fill="#D7DCE0"/>
<path d="M27.6957 61.1087L20.7542 65.1164L15.5555 62.1166L22.5001 58.1089L27.6957 61.1087Z" fill="#F6D84C"/>
<path d="M27.6958 61.1079V85.2922L20.7543 89.3V65.1156L27.6958 61.1079Z" fill="#F6D84C"/>
<path d="M20.7542 65.1155V89.2999L15.5555 86.3001V62.1157L20.7542 65.1155Z" fill="#3A3A3A"/>
<path d="M27.6958 61.1079L20.7543 65.1156V89.3L29.8137 84.0683C31.2686 83.2284 32.7085 82.7484 34.0404 82.6584C35.3723 82.5684 36.8122 82.0885 38.2701 81.2485L45.6886 76.9648" stroke="#3A3A3A" stroke-miterlimit="10" stroke-linecap="round" stroke-linejoin="round"/>
<path d="M49.1322 74.9758C51.1871 73.7879 53.0139 71.2141 53.6619 68.5863L58.5186 48.8656C58.5905 48.5776 58.6415 48.2986 58.6715 48.0347C58.8395 46.5798 58.4196 45.5148 57.6276 45.0589C56.9767 44.6839 56.0737 44.7229 55.0478 45.3169L43.7446 51.8414C44.0925 49.6096 44.4345 47.3957 44.6925 45.2959C45.4214 39.3803 45.5145 34.3616 43.2466 32.4567C43.1926 32.4117 43.1386 32.3727 43.0816 32.3397C41.7977 31.5988 39.5299 33.7976 39.3349 36.0775C38.6209 44.3479 36.0141 51.2654 31.9044 57.247C30.8455 58.7859 29.5526 60.0368 28.2236 60.8048L27.6957 61.1078" stroke="#3A3A3A" stroke-miterlimit="10" stroke-linecap="round" stroke-linejoin="round"/>
<path d="M22.5002 58.1089L27.6959 61.1087V85.293" stroke="#3A3A3A" stroke-miterlimit="10" stroke-linecap="round" stroke-linejoin="round"/>
<path d="M58.6716 48.0356L50.8421 52.5563C48.6253 53.8342 46.6694 56.6301 46.0155 59.4529L42.6587 73.9299C42.0258 76.6597 43.5496 78.1806 45.6885 76.9657C45.6975 76.9597 45.7065 76.9567 45.7155 76.9507L49.1323 74.9768" stroke="#3A3A3A" stroke-miterlimit="10" stroke-linecap="round" stroke-linejoin="round"/>
<path d="M45.6826 60.8921L57.1928 54.2476" stroke="#3A3A3A" stroke-miterlimit="10" stroke-linecap="round" stroke-linejoin="round"/>
<path d="M44.2456 67.0807L55.6539 60.4932" stroke="#3A3A3A" stroke-miterlimit="10" stroke-linecap="round" stroke-linejoin="round"/>
<path d="M42.8117 73.2667L54.1149 66.7422" stroke="#3A3A3A" stroke-miterlimit="10" stroke-linecap="round" stroke-linejoin="round"/>
<path d="M20.7542 89.2996L15.5555 86.2998V62.1155L23.025 57.8048C24.3569 57.0368 25.6499 55.7859 26.7088 54.247C30.8185 48.2624 33.4253 41.3479 34.1363 33.0775C34.3343 30.7976 36.6051 28.5988 37.886 29.3397L43.0816 32.3395" stroke="#3A3A3A" stroke-miterlimit="10" stroke-linecap="round" stroke-linejoin="round"/>
<path d="M44.6925 45.296L49.8522 42.3172C50.8781 41.7233 51.781 41.6813 52.435 42.0563L57.6306 45.0561" stroke="#3A3A3A" stroke-miterlimit="10" stroke-linecap="round" stroke-linejoin="round"/>
<path d="M15.5555 62.1157L20.7542 65.1155" stroke="#3A3A3A" stroke-miterlimit="10" stroke-linecap="round" stroke-linejoin="round"/>
</svg>
