<svg width="100" height="100" viewBox="0 0 100 100" fill="none" xmlns="http://www.w3.org/2000/svg">
<path d="M88.5987 30.3494C89.7545 33.8532 88.8901 37.6252 86.5388 40.3375C86.0255 40.927 84.1676 42.0894 81.5348 43.7354C81.5381 43.583 81.5414 43.4307 81.5414 43.275C81.5414 35.1945 76.3056 25.4978 69.5431 20.6097V20.6063C70.9009 20.1526 72.0169 19.7652 72.8316 19.4804C76.6633 18.1325 80.9619 19.1392 83.7371 22.1065C85.8665 24.3651 87.6217 27.3622 88.5987 30.3494Z" fill="#D7DCE0"/>
<path d="M75.7792 47.3979C74.4346 54.7566 72.3681 61.3403 69.2154 68.5697C68.2285 70.8316 66.3905 72.6365 64.6883 73.0439C64.0094 73.2061 63.4265 73.13 62.9629 72.8684H62.9596C61.7276 72.1696 61.3401 70.1461 62.221 67.7219C63.9299 63.0193 65.1387 58.7207 65.9831 54.432C69.2915 51.786 72.7026 49.4148 75.7792 47.3979Z" fill="#EBEDEF"/>
<path d="M65.9865 54.4351C65.1387 58.7237 63.9299 63.0223 62.2244 67.725C61.3402 70.1525 61.7309 72.1759 62.9629 72.8714L59.5386 71.0102C58.3033 70.3148 57.9125 68.288 58.7935 65.8605C59.7009 63.3634 60.4692 60.979 61.115 58.6509C62.6715 57.1805 64.3174 55.7697 65.9865 54.4351Z" fill="#D7DCE0"/>
<path d="M52.0836 67.2147C52.0836 68.4632 51.9942 69.6455 51.8352 70.7549C50.3019 81.1835 41.8272 84.9456 31.6007 79.0441C20.2812 72.5068 11.1111 56.6238 11.1111 43.5591C11.1111 32.2463 17.973 26.7621 27.153 29.7194C28.5804 30.1764 30.0707 30.8487 31.604 31.7296C42.9102 38.257 52.0836 54.15 52.0836 67.2147ZM47.3247 67.3339C47.4472 66.4695 47.5168 65.5555 47.5168 64.5819C47.5168 61.5748 46.8909 58.3691 45.7847 55.2263C44.3673 51.2158 42.1717 47.2947 39.4826 43.9664C37.1577 41.0886 34.4653 38.6611 31.6007 37.0052C30.4085 36.323 29.2494 35.8031 28.1432 35.4454C21.0098 33.1438 15.6779 37.4092 15.6779 46.2018C15.6779 56.3556 22.8048 68.6983 31.6007 73.7752C39.5455 78.3586 46.1325 75.4377 47.3247 67.3339Z" fill="white"/>
<path d="M47.5169 64.5788C47.5169 65.5525 47.4474 66.4665 47.3249 67.3309C46.1326 75.4346 39.549 78.3589 31.6008 73.7722C22.8016 68.6953 15.6781 56.3525 15.6781 46.1988C15.6781 37.4095 21.01 33.1407 28.1434 35.4424C29.2528 35.7967 30.4086 36.3167 31.6008 37.0022C34.4655 38.6547 37.1579 41.0855 39.4827 43.9634L28.5673 50.9611C27.1267 51.8883 26.1696 53.5012 26.1696 55.3392C26.1696 58.2071 28.4978 60.5319 31.3624 60.5319C32.038 60.5319 32.6805 60.4061 33.2732 60.1709L45.7783 55.2232H45.7816C46.891 58.3694 47.5169 61.5718 47.5169 64.5788Z" fill="#3A3A3A"/>
<path d="M45.7847 55.2232H45.7814L33.2764 60.1709C32.6836 60.4027 32.0411 60.5319 31.3655 60.5319C28.5009 60.5319 26.1727 58.2071 26.1727 55.3391C26.1727 53.5011 27.1265 51.8883 28.5704 50.961L39.4858 43.9634C42.1683 47.2883 44.3673 51.2127 45.7847 55.2232Z" fill="#F6D84C"/>
<path d="M75.7789 47.3976C72.7023 49.4145 69.2912 51.7856 65.9861 54.435C64.3137 55.7729 62.6711 57.1804 61.1113 58.6508C57.1969 62.3434 53.8023 66.4268 51.8352 70.7585C51.9908 69.6457 52.0836 68.4668 52.0836 67.2183C52.0836 54.1535 42.9134 38.2606 31.6006 31.7332C30.0673 30.8556 28.577 30.1833 27.1497 29.723C37.7538 30.7331 59.8164 23.8712 69.5429 20.6025V20.6059C76.3054 25.4939 81.5413 35.1906 81.5413 43.2712C81.5413 43.4269 81.538 43.5792 81.5347 43.7315C79.8722 44.7714 77.905 46.0001 75.7789 47.3976Z" fill="white"/>
<path d="M27.1497 29.7239C28.5771 30.1842 30.0673 30.8532 31.6007 31.7341C42.9135 38.2615 52.0836 54.1544 52.0836 67.2191C52.0836 68.4676 51.9975 69.6499 51.8352 70.7593C50.335 81.1912 41.8273 84.95 31.6007 79.0485C20.2812 72.5112 11.1111 56.6282 11.1111 43.5635C11.1078 32.2507 17.9697 26.7731 27.1497 29.7239Z" stroke="#3A3A3A" stroke-miterlimit="10" stroke-linecap="round" stroke-linejoin="round"/>
<path d="M45.7849 55.2242C46.8943 58.3703 47.5169 61.5728 47.5169 64.5798C47.5169 65.5535 47.4474 66.4675 47.3249 67.3318C46.1326 75.4356 39.549 78.3599 31.6008 73.7731C22.8016 68.6963 15.6781 56.3535 15.6781 46.1998C15.6781 37.4105 21.01 33.1417 28.1434 35.4433C29.2528 35.7977 30.4086 36.3176 31.6008 37.0032C34.4655 38.6557 37.1579 41.0865 39.4827 43.9644C42.1685 47.2893 44.3675 51.2137 45.7849 55.2242Z" stroke="#3A3A3A" stroke-miterlimit="10" stroke-linecap="round" stroke-linejoin="round"/>
<path d="M69.5431 20.6064C76.3056 25.4945 81.5414 35.1912 81.5414 43.2718C81.5414 43.4275 81.5381 43.5798 81.5348 43.7321" stroke="#3A3A3A" stroke-miterlimit="10" stroke-linecap="round" stroke-linejoin="round"/>
<path d="M27.1497 29.7234C37.7538 30.7335 59.8131 23.865 69.5429 20.6029C70.9007 20.1492 72.0168 19.7617 72.8315 19.4769C76.6631 18.1291 80.9617 19.1358 83.7369 22.1031C85.8697 24.365 87.6249 27.3621 88.6019 30.3493C89.7576 33.8531 88.8933 37.6251 86.542 40.3374C86.0287 40.9269 84.1708 42.086 81.538 43.7352C79.8788 44.7751 77.9116 46.0038 75.7855 47.4013C72.7122 49.4215 69.2979 51.7893 65.9928 54.4387C64.3237 55.7766 62.6777 57.1841 61.1179 58.6545C57.2035 62.3504 53.809 66.4305 51.8418 70.7622" stroke="#3A3A3A" stroke-miterlimit="10" stroke-linecap="round" stroke-linejoin="round"/>
<path d="M62.9661 72.8722C63.4297 73.1338 64.0126 73.21 64.6915 73.0477C66.3904 72.6403 68.2284 70.8355 69.2186 68.5735C72.3713 61.3408 74.4379 54.7604 75.7824 47.4018V47.3984" stroke="#3A3A3A" stroke-miterlimit="10" stroke-linecap="round" stroke-linejoin="round"/>
<path d="M65.9862 54.4355C65.1384 58.7242 63.9296 63.0228 62.2241 67.7255C61.3399 70.153 61.7306 72.1764 62.9626 72.8719" stroke="#3A3A3A" stroke-miterlimit="10" stroke-linecap="round" stroke-linejoin="round"/>
<path d="M61.1114 58.6519C60.4656 60.98 59.6973 63.3677 58.7899 65.8614C57.9057 68.2922 58.2998 70.319 59.535 71.0112L62.9594 72.8724H62.9627" stroke="#3A3A3A" stroke-miterlimit="10" stroke-linecap="round" stroke-linejoin="round"/>
<path d="M45.7814 55.2242L33.2764 60.1719C32.6836 60.4037 32.0411 60.5329 31.3655 60.5329C28.5009 60.5329 26.1727 58.2081 26.1727 55.3401C26.1727 53.5021 27.1265 51.8893 28.5704 50.962L39.4858 43.9644" stroke="#3A3A3A" stroke-miterlimit="10" stroke-linecap="round" stroke-linejoin="round"/>
</svg>
