<svg width="100" height="100" viewBox="0 0 100 100" fill="none" xmlns="http://www.w3.org/2000/svg">
<path d="M73.7882 83.0209V88.1405C73.7882 88.9075 73.5341 89.4519 73.1325 89.689C72.7937 89.8874 72.351 89.8704 71.8671 89.5922L23.1241 61.4487C21.8781 60.7326 21.1111 59.3994 21.1111 57.9647V52.6104L73.7882 83.0209Z" fill="#3A3A3A"/>
<path d="M73.7882 45.8157V83.0202L21.1111 52.6096V15.4004C21.1111 14.6334 21.3627 14.0914 21.7643 13.8519L21.8006 13.8325C22.1345 13.6559 22.5628 13.6777 23.0297 13.9487L71.8647 42.143C72.9268 42.7575 73.7882 44.4003 73.7882 45.8157Z" fill="white"/>
<path d="M41.9164 77.2794C41.147 78.7529 41.7664 80.4151 43.7842 81.5788C45.2408 82.4232 47.1522 82.8442 49.066 82.8442C50.9798 82.8442 52.8888 82.4232 54.3501 81.5788C54.9889 81.2111 55.4897 80.7901 55.8478 80.3449L60.919 83.2749C60.4376 83.6765 59.8835 84.0612 59.2617 84.4169C56.4454 86.0428 52.7557 86.8557 49.066 86.8557C45.3763 86.8557 41.6865 86.0428 38.8703 84.4169C33.2401 81.1675 33.2401 75.8955 38.8703 72.6461C39.4921 72.288 40.155 71.9686 40.8518 71.688L43.9125 73.4566L41.9164 77.2794Z" fill="white"/>
<path d="M43.9147 73.4512L55.8476 80.3419C55.4896 80.7895 54.9887 81.208 54.35 81.5758C52.891 82.4202 50.9796 82.8412 49.0658 82.8412C47.152 82.8412 45.243 82.4202 43.7841 81.5758C41.7662 80.4144 41.1444 78.7498 41.9162 77.2764L43.9147 73.4512Z" fill="#D7DCE0"/>
<path d="M21.8007 13.8331L26.1751 11.2442C26.5138 11.0458 26.9566 11.0628 27.4405 11.341L76.2754 39.5353C77.3351 40.1498 78.1965 41.7927 78.1965 43.2081V85.5321C78.1965 86.2991 77.9424 86.8435 77.5408 87.0806L73.1325 89.6888C73.5341 89.4517 73.7882 88.9073 73.7882 88.1403V45.8163C73.7882 44.4009 72.9268 42.758 71.8671 42.1435L23.0298 13.9492C22.5628 13.6782 22.1345 13.6565 21.8007 13.8331Z" fill="#D7DCE0"/>
<path d="M21.8006 13.8325C22.1345 13.6559 22.5628 13.6777 23.0297 13.9487L71.8647 42.1429C72.9244 42.7575 73.7857 44.4003 73.7857 45.8157V88.1398C73.7857 88.9068 73.5317 89.4512 73.13 89.6883C72.7913 89.8891 72.3486 89.8697 71.8647 89.5915L23.1241 61.448C21.8781 60.7319 21.1111 59.3987 21.1111 57.964V15.4004C21.1111 14.6334 21.3627 14.0914 21.7643 13.8519" stroke="#3A3A3A" stroke-miterlimit="10" stroke-linecap="round" stroke-linejoin="round"/>
<path d="M21.1111 52.6104L73.7882 83.0209" stroke="#3A3A3A" stroke-miterlimit="10" stroke-linecap="round" stroke-linejoin="round"/>
<path d="M73.1301 89.6888L77.5384 87.0806C77.94 86.8435 78.194 86.2991 78.194 85.5321V43.2081C78.194 41.7927 77.3327 40.1498 76.273 39.5353L27.4405 11.341C26.9566 11.0628 26.5138 11.0458 26.1751 11.2442L21.7643 13.8524" stroke="#3A3A3A" stroke-miterlimit="10" stroke-linecap="round" stroke-linejoin="round"/>
<path d="M42.3374 76.4419L42.3325 76.4516C42.3301 76.454 42.3277 76.4588 42.3253 76.4637C42.3301 76.4588 42.2745 76.5556 42.1898 76.7371C42.1801 76.7588 42.168 76.783 42.1535 76.8048C42.1487 76.8169 42.1293 76.8556 42.1148 76.8822C42.1027 76.904 42.0906 76.9282 42.0785 76.9524C42.0422 77.0177 42.0325 77.0419 42.0567 76.9984C42.0446 77.0226 42.0301 77.0492 42.0156 77.0758C41.943 77.2282 41.914 77.2742 41.914 77.2742C41.1446 78.7477 41.764 80.4099 43.7818 81.5736C45.2383 82.418 47.1497 82.839 49.0635 82.839C50.9774 82.839 52.8863 82.418 54.3477 81.5736C54.9865 81.2059 55.4873 80.7849 55.8454 80.3397" stroke="#3A3A3A" stroke-miterlimit="10" stroke-linecap="round" stroke-linejoin="round"/>
<path d="M43.9148 73.4512L41.9163 77.2788" stroke="#3A3A3A" stroke-miterlimit="10" stroke-linecap="round" stroke-linejoin="round"/>
<path d="M60.9165 83.272C60.4351 83.6736 59.881 84.0583 59.2592 84.414C56.4429 86.0399 52.7532 86.8528 49.0635 86.8528C45.3738 86.8528 41.684 86.0399 38.8678 84.414C33.2376 81.1646 33.2376 75.8925 38.8678 72.6432C39.4896 72.2851 40.1525 71.9657 40.8493 71.6851" stroke="#3A3A3A" stroke-miterlimit="10" stroke-linecap="round" stroke-linejoin="round"/>
<path d="M57.6239 39.877C59.8039 41.1352 61.5725 44.1958 61.5725 46.7121C61.5725 48.7638 60.3991 49.8211 58.7828 49.4606C58.4175 49.3784 58.028 49.2235 57.6239 48.9912C55.444 47.7331 53.6777 44.6725 53.6777 42.1562C53.6777 41.8562 53.7019 41.5755 53.7503 41.3191C54.106 39.427 55.7053 38.7689 57.6239 39.877Z" fill="#F6D84C"/>
<path d="M58.7826 59.4233V66.1447L34.7159 52.2496V50.2777L41.2752 46.4888L43.9826 51.1753L51.5096 46.8275L58.7826 59.4233Z" fill="#EBEDEF"/>
<path d="M58.7826 49.4595V59.4254L51.5096 46.8271L43.9801 51.1749L41.2751 46.4884L34.7135 50.2773V30.3286L53.75 41.3179C53.7016 41.5744 53.6774 41.8526 53.6774 42.1551C53.6774 44.6713 55.4437 47.732 57.6236 48.9901C58.0277 49.2224 58.4172 49.3772 58.7826 49.4595ZM43.6801 42.3075C43.6801 41.2768 42.9567 40.0259 42.0663 39.513C41.176 38.9976 40.4525 39.4138 40.4525 40.4445C40.4525 41.4728 41.176 42.7261 42.0663 43.239C42.9567 43.7543 43.6801 43.3382 43.6801 42.3075Z" fill="white"/>
<path d="M42.0663 39.514C42.9591 40.0294 43.6801 41.2803 43.6801 42.3085C43.6801 43.3392 42.9567 43.7554 42.0663 43.24C41.1759 42.7247 40.4525 41.4738 40.4525 40.4455C40.4525 39.4148 41.1759 38.9987 42.0663 39.514Z" fill="#3A3A3A"/>
<path d="M58.7829 49.4595V66.1443L34.7162 52.2492V30.3286L53.7528 41.3179" stroke="#3A3A3A" stroke-miterlimit="10" stroke-linecap="round" stroke-linejoin="round"/>
<path d="M34.716 50.2777L41.2752 46.4888L43.9826 51.1753L51.5097 46.8275L58.7826 59.4233" stroke="#3A3A3A" stroke-miterlimit="10" stroke-linecap="round" stroke-linejoin="round"/>
<path d="M43.6802 42.3085C43.6802 41.2778 42.9568 40.027 42.0664 39.514C41.1761 38.9987 40.4526 39.4148 40.4526 40.4455C40.4526 41.4738 41.1761 42.7271 42.0664 43.24C42.9568 43.7554 43.6802 43.3392 43.6802 42.3085Z" stroke="#3A3A3A" stroke-miterlimit="10" stroke-linecap="round" stroke-linejoin="round"/>
<path d="M58.7827 49.4611C60.3965 49.824 61.5724 48.7643 61.5724 46.7125C61.5724 44.1963 59.8061 41.1356 57.6238 39.8775C55.7051 38.7694 54.1082 39.4299 53.7526 41.3195C53.7042 41.576 53.68 41.8542 53.68 42.1566C53.68 44.6729 55.4462 47.7336 57.6262 48.9917C58.0278 49.224 58.4173 49.3788 58.7827 49.4611Z" stroke="#3A3A3A" stroke-miterlimit="10" stroke-linecap="round" stroke-linejoin="round"/>
<path d="M58.5188 43.7007C58.7414 44.1217 58.8552 44.6056 58.8552 45.15C58.8552 45.5323 58.7947 45.825 58.6737 46.0258C58.5527 46.2267 58.3834 46.3355 58.1656 46.35C57.9478 46.3646 57.6962 46.2896 57.4083 46.125C57.2559 46.0379 57.1131 45.9363 56.9801 45.8226C56.847 45.7089 56.7308 45.5879 56.6316 45.4597L56.8349 45.0992C56.9801 45.2927 57.1688 45.4573 57.3962 45.5879C57.6793 45.7524 57.9019 45.779 58.0616 45.6702C58.2212 45.5613 58.3011 45.3169 58.3011 44.9371V44.9322C58.214 45 58.1027 45.0242 57.9672 45.0048C57.8317 44.9879 57.6793 44.9298 57.5123 44.833C57.3188 44.7217 57.1446 44.5766 56.9897 44.4024C56.8349 44.2282 56.7139 44.0346 56.6268 43.8265C56.5397 43.616 56.4962 43.408 56.4962 43.1999C56.4962 42.9797 56.5445 42.8128 56.6389 42.7015C56.7333 42.5902 56.8639 42.5345 57.026 42.5394C57.1881 42.5418 57.372 42.6023 57.5752 42.7184C57.9793 42.9531 58.2938 43.2797 58.5188 43.7007ZM58.0495 44.4822C58.1608 44.4362 58.2164 44.3274 58.2164 44.1604C58.2164 43.9959 58.1632 43.8265 58.0543 43.6547C57.9454 43.483 57.7954 43.3426 57.6043 43.2313C57.4325 43.1321 57.2946 43.1055 57.1857 43.1491C57.0793 43.1926 57.026 43.3015 57.026 43.4781C57.026 43.6572 57.0793 43.8289 57.1857 43.9935C57.2922 44.158 57.4349 44.2935 57.6164 44.3975C57.7954 44.5016 57.9382 44.5282 58.0495 44.4822Z" fill="#3A3A3A"/>
</svg>
