<svg width="120" height="120" viewBox="0 0 120 120" fill="none" xmlns="http://www.w3.org/2000/svg">
<g id="Group 1000002887">
<g id="XMLID_5_">
<g id="Group">
<path id="Vector" d="M13.2553 40.0627L11.9537 48.6182C11.2508 53.2386 13.6043 58.3274 19.1751 62.7825C24.7487 67.2415 32.4872 70.2226 40.4938 71.4407C48.4971 72.6583 56.7753 72.1139 63.4195 69.5138C64.2772 69.178 65.0842 68.8175 65.8499 68.4371L64.4051 67.1963C63.9358 66.7913 63.7148 66.0736 63.8576 65.1356C64.105 63.509 65.3627 61.7298 66.8397 60.7905L66.5412 60.1801C65.962 60.4528 65.3572 60.7147 64.7239 60.9621C58.0797 63.5623 49.8049 64.1071 41.7982 62.889C33.7949 61.6714 26.0532 58.6898 20.4795 54.2308C14.9059 49.7719 12.5524 44.6831 13.2553 40.0627Z" fill="#3A3A3A"/>
<path id="Vector_2" d="M47.2915 26.7605C55.2948 27.9781 63.0365 30.9597 68.6074 35.4148C68.9163 35.666 69.2186 35.9162 69.5104 36.1682C72.821 39.0373 74.8371 42.1382 75.6017 45.1882C75.9741 46.6777 76.0454 48.1554 75.8283 49.5824C75.1921 53.7637 72.0579 57.5649 66.5385 60.1763C65.9593 60.4489 65.3545 60.7108 64.7212 60.9582C58.077 63.5584 49.8022 64.1033 41.7955 62.8851C33.7922 61.6675 26.0505 58.6859 20.4768 54.227C14.906 49.7718 12.552 44.6864 13.2554 40.0627C13.9589 35.439 17.7188 31.2837 24.363 28.6836C31.01 26.0872 39.2849 25.5424 47.2915 26.7605ZM42.3588 59.1829C49.0948 60.2077 56.0509 59.8297 61.6168 57.8075C72.7519 53.7634 74.1355 44.6691 64.7064 37.4998C59.9904 33.9133 53.4642 31.4876 46.7282 30.4628C39.9923 29.438 33.0366 29.8126 27.474 31.8353C16.3323 35.8784 14.9487 44.9727 24.3845 52.143C29.0938 55.7285 35.6229 58.1581 42.3588 59.1829Z" fill="white"/>
<path id="Vector_3" d="M27.4739 31.8354C16.3321 35.8785 14.9485 44.9728 24.3843 52.1431C29.097 55.7291 35.6227 58.1582 42.3587 59.183C49.0946 60.2078 56.0508 59.8298 61.6167 57.8076C72.7518 53.7635 74.1354 44.6692 64.7063 37.4999C59.9903 33.9134 53.4641 31.4877 46.7281 30.4629C39.9922 29.4381 33.0365 29.8127 27.4739 31.8354Z" fill="#EBEDEF"/>
<path id="Vector_4" d="M75.8248 49.582C75.1887 53.7633 72.0544 57.5645 66.535 60.1758L66.8336 60.7862C67.1088 60.6103 67.3894 60.4658 67.6717 60.3556C68.5585 60.0072 69.3056 60.063 69.8037 60.4349L72.7564 62.6368C73.6939 61.2173 74.2815 59.7037 74.5204 58.1337L75.8215 49.5815L75.8248 49.582Z" fill="#3A3A3A"/>
<path id="Vector_5" d="M65.8471 68.4333L67.479 69.832L67.4795 69.8286C67.0212 69.4186 66.8173 68.7001 66.9777 67.7579C67.3049 65.7861 69.0699 63.5803 70.9202 62.8272C71.7222 62.5 72.4126 62.5029 72.9098 62.7691L72.9185 62.7568L72.7587 62.644L72.7592 62.6407L69.8065 60.4388C69.3084 60.0669 68.5613 60.0111 67.6745 60.3594C67.3922 60.4696 67.1116 60.6141 66.8364 60.7901C65.3589 61.7327 64.1017 63.5085 63.8542 65.1352C63.7115 66.0732 63.9324 66.7909 64.4018 67.1958L65.8471 68.4333Z" fill="#F6D84C"/>
<path id="Vector_6" d="M96.8829 92.9049C96.6911 94.1656 96.9864 95.1329 97.6253 95.6759C98.2972 96.2478 99.346 96.3563 100.594 95.8689C103.037 94.9133 105.34 92.0371 105.734 89.4426C105.936 88.1153 105.598 87.1144 104.888 86.5912C104.216 86.0873 103.21 86.0125 102.023 86.4785C99.5807 87.4309 97.2776 90.3103 96.8829 92.9049Z" fill="#3A3A3A"/>
<path id="Vector_7" d="M104.892 86.5884L72.9185 62.7569L72.9098 62.7692C72.4126 62.5029 71.7255 62.5005 70.9202 62.8272C69.0699 63.5803 67.3049 65.7861 66.9777 67.7579C66.8207 68.7006 67.0211 69.4186 67.4795 69.8286L67.479 69.832L97.6257 95.6726C96.9868 95.1296 96.6915 94.1623 96.8833 92.9016C97.2781 90.307 99.5812 87.4276 102.023 86.4752C103.211 86.0092 104.217 86.084 104.889 86.5879L104.892 86.5884Z" fill="white"/>
</g>
<g id="Group_2">
<path id="Vector_8" d="M75.8248 49.5821C76.0425 48.1517 75.9712 46.674 75.5983 45.1879C74.837 42.1383 72.8176 39.0369 69.5069 36.1679C69.2152 35.9159 68.9162 35.6662 68.604 35.4145C63.0331 30.9593 55.2947 27.9782 47.2881 26.7601C39.2848 25.5425 31.0066 26.0869 24.3596 28.6832C17.7154 31.2834 13.955 35.442 13.252 40.0623C12.5491 44.6827 14.9026 49.7715 20.4734 54.2266C26.0471 58.6856 33.7855 61.6667 41.7921 62.8848C49.7954 64.1024 58.0736 63.558 64.7178 60.9579C65.3505 60.7138 65.9592 60.449 66.5351 60.1759C72.0568 57.5717 75.1887 53.7633 75.8248 49.5821Z" stroke="#3A3A3A" stroke-miterlimit="10" stroke-linecap="round" stroke-linejoin="round"/>
<path id="Vector_9" d="M46.7281 30.4629C39.9921 29.4381 33.0365 29.8127 27.4739 31.8354C16.3321 35.8785 14.9485 44.9728 24.3843 52.1431C29.097 55.7291 35.6227 58.1582 42.3587 59.183C49.0946 60.2078 56.0508 59.8298 61.6167 57.8076C72.7518 53.7635 74.1354 44.6692 64.7062 37.4999C59.9903 33.9134 53.464 31.4877 46.7281 30.4629Z" stroke="#3A3A3A" stroke-miterlimit="10" stroke-linecap="round" stroke-linejoin="round"/>
<path id="Vector_10" d="M13.2553 40.0627L11.9537 48.6182C11.2508 53.2386 13.6043 58.3274 19.1751 62.7825C24.7488 67.2415 32.4872 70.2226 40.4938 71.4407C48.4971 72.6583 56.7753 72.1139 63.4195 69.5138C64.2772 69.178 65.0842 68.8175 65.85 68.4371" stroke="#3A3A3A" stroke-miterlimit="10" stroke-linecap="round" stroke-linejoin="round"/>
<path id="Vector_11" d="M72.7597 62.6374C73.6972 61.2179 74.2848 59.7043 74.5237 58.1342L75.8253 49.5788" stroke="#3A3A3A" stroke-miterlimit="10" stroke-linecap="round" stroke-linejoin="round"/>
<path id="Vector_12" d="M72.9099 62.7692C72.4126 62.5029 71.7255 62.5005 70.9202 62.8272C69.0699 63.5803 67.3049 65.7861 66.9777 67.7579C66.8207 68.7006 67.0212 69.4186 67.4795 69.8286" stroke="#3A3A3A" stroke-miterlimit="10" stroke-linecap="round" stroke-linejoin="round"/>
<path id="Vector_13" d="M104.892 86.5917C104.216 86.0907 103.213 86.013 102.026 86.479C99.5841 87.4314 97.2809 90.3108 96.8862 92.9054C96.6944 94.1661 96.9897 95.1334 97.6286 95.6764C98.3005 96.2483 99.3493 96.3568 100.598 95.8695C103.04 94.9138 105.343 92.0377 105.738 89.4431C105.936 88.1153 105.598 87.1177 104.892 86.5917Z" stroke="#3A3A3A" stroke-miterlimit="10" stroke-linecap="round" stroke-linejoin="round"/>
<path id="Vector_14" d="M104.892 86.5884L72.7592 62.6407L72.7597 62.6374L69.807 60.4355C69.3089 60.0636 68.5618 60.0078 67.675 60.3561C67.3927 60.4663 67.1121 60.6108 66.8369 60.7868C65.3593 61.7294 64.1022 63.5053 63.8547 65.1319C63.712 66.0699 63.9329 66.7876 64.4023 67.1925L97.6257 95.6726" stroke="#3A3A3A" stroke-miterlimit="10" stroke-linecap="round" stroke-linejoin="round"/>
</g>
</g>
</g>
</svg>
