<svg width="44" height="62" viewBox="0 0 44 62" fill="none" xmlns="http://www.w3.org/2000/svg">
<path d="M42.0674 16.8635C42.8405 17.3165 43.2504 18.3843 43.0864 19.839L35.4439 24.3592C33.28 25.637 31.3709 28.4324 30.7325 31.2549L27.4559 45.7303C26.8381 48.4598 28.3256 49.9806 30.4134 48.7658L23.172 53.049C21.749 53.8889 20.3434 54.3688 19.0433 54.4588C17.7432 54.5487 16.3377 55.0287 14.9176 55.8685L12.8503 57.0923V32.9106L13.3656 32.6077C14.6628 31.8398 15.9248 30.5891 16.9585 29.0503C20.9701 23.0694 23.5146 16.1527 24.2115 7.88315C24.4019 5.60356 26.6156 3.40496 27.8688 4.14583C27.9244 4.17882 27.9771 4.21781 28.0299 4.26281C30.2435 6.16746 30.1557 11.1856 29.4412 17.1005C29.1894 19.2001 28.8556 21.4137 28.5159 23.6453L39.5492 17.1215C40.5507 16.5276 41.432 16.4856 42.0674 16.8635Z" fill="white"/>
<path d="M35.4439 24.3592L43.0864 19.839C43.0571 20.1029 43.0073 20.3819 42.9371 20.6698L41.6428 26.0509L30.4075 32.6947L30.7325 31.2549C31.3708 28.4324 33.28 25.637 35.4439 24.3592Z" fill="white"/>
<path d="M41.6428 26.0509L40.1407 32.2958L29.0049 38.8826L30.4075 32.6947L41.6428 26.0509Z" fill="white"/>
<path d="M36.9987 13.8611L42.0703 16.8605L42.0674 16.8635C41.432 16.4856 40.5506 16.5276 39.5492 17.1215L28.5159 23.6453C28.8555 21.4137 29.1893 19.2001 29.4412 17.1005L34.4776 14.122C35.479 13.5281 36.3604 13.4861 36.9987 13.8611Z" fill="#D7DCE0"/>
<path d="M40.1407 32.2958L38.6385 38.5436L27.6052 45.0674L29.0049 38.8826L40.1407 32.2958Z" fill="white"/>
<path d="M38.6386 38.5436L38.1964 40.3883C37.5639 43.0158 35.7807 45.5894 33.7749 46.7771L30.4397 48.7508C30.4309 48.7568 30.4221 48.7598 30.4134 48.7658C28.3256 49.9806 26.8381 48.4598 27.4559 45.7303L27.6053 45.0674L38.6386 38.5436Z" fill="white"/>
<path d="M22.7972 1.14637L27.8688 4.14583C26.6155 3.40796 24.4018 5.60356 24.2115 7.88315C23.5146 16.1527 20.97 23.0694 16.9585 29.0503C15.9248 30.5891 14.6628 31.8398 13.3656 32.6077L12.8503 32.9106L7.77869 29.9112L8.29111 29.6082C9.59122 28.8404 10.8533 27.5896 11.8869 26.0509C15.8985 20.067 18.443 13.1532 19.137 4.88369C19.3303 2.60411 21.5469 0.405502 22.7972 1.14637Z" fill="#D7DCE0"/>
<path d="M12.8503 32.9106L6.0745 36.9179L1 33.9185L7.77869 29.9112L12.8503 32.9106Z" fill="#F6D84C"/>
<path d="M12.8503 32.9106V57.0923L6.07452 61.0996V36.9179L12.8503 32.9106Z" fill="#F6D84C"/>
<path d="M6.0745 36.9179V61.0996L1 58.1001V33.9185L6.0745 36.9179Z" fill="#3A3A3A"/>
<path d="M12.8503 32.9106L6.07452 36.9179V61.0996L14.9176 55.8685C16.3377 55.0287 17.7432 54.5487 19.0433 54.4588C20.3434 54.3688 21.749 53.8889 23.172 53.049L30.4134 48.7658" stroke="#3A3A3A" stroke-miterlimit="10" stroke-linecap="round" stroke-linejoin="round"/>
<path d="M33.7749 46.7771C35.7807 45.5894 37.5639 43.0158 38.1964 40.3883L42.9371 20.6698C43.0074 20.3819 43.0572 20.1029 43.0864 19.839C43.2504 18.3843 42.8405 17.3195 42.0674 16.8635C41.432 16.4886 40.5507 16.5276 39.5492 17.1215L28.5159 23.6453C28.8556 21.4137 29.1894 19.2001 29.4412 17.1005C30.1528 11.1856 30.2435 6.16746 28.0299 4.26281C27.9771 4.21781 27.9244 4.17882 27.8688 4.14583C26.6156 3.40496 24.4019 5.60356 24.2115 7.88315C23.5146 16.1527 20.9701 23.0694 16.9585 29.0503C15.9248 30.5891 14.6628 31.8398 13.3656 32.6077L12.8503 32.9106" stroke="#3A3A3A" stroke-miterlimit="10" stroke-linecap="round" stroke-linejoin="round"/>
<path d="M7.77869 29.9112L12.8503 32.9106V57.0923" stroke="#3A3A3A" stroke-miterlimit="10" stroke-linecap="round" stroke-linejoin="round"/>
<path d="M43.0864 19.839L35.4439 24.3592C33.28 25.637 31.3709 28.4324 30.7325 31.2549L27.4559 45.7303C26.8381 48.4598 28.3256 49.9806 30.4134 48.7658C30.4221 48.7598 30.4309 48.7568 30.4397 48.7508L33.7749 46.7771" stroke="#3A3A3A" stroke-miterlimit="10" stroke-linecap="round" stroke-linejoin="round"/>
<path d="M30.4075 32.6947L41.6428 26.0509" stroke="#3A3A3A" stroke-miterlimit="10" stroke-linecap="round" stroke-linejoin="round"/>
<path d="M29.0049 38.8826L40.1407 32.2958" stroke="#3A3A3A" stroke-miterlimit="10" stroke-linecap="round" stroke-linejoin="round"/>
<path d="M27.6052 45.0674L38.6385 38.5436" stroke="#3A3A3A" stroke-miterlimit="10" stroke-linecap="round" stroke-linejoin="round"/>
<path d="M6.0745 61.0996L1 58.1001V33.9185L8.29111 29.6082C9.59121 28.8404 10.8533 27.5896 11.8869 26.0509C15.8985 20.067 18.443 13.1532 19.137 4.88369C19.3303 2.60411 21.5469 0.405502 22.7972 1.14637L27.8688 4.14583" stroke="#3A3A3A" stroke-miterlimit="10" stroke-linecap="round" stroke-linejoin="round"/>
<path d="M29.4412 17.1005L34.4777 14.122C35.4791 13.5281 36.3605 13.4861 36.9988 13.8611L42.0704 16.8605" stroke="#3A3A3A" stroke-miterlimit="10" stroke-linecap="round" stroke-linejoin="round"/>
<path d="M1 33.9185L6.0745 36.9179" stroke="#3A3A3A" stroke-miterlimit="10" stroke-linecap="round" stroke-linejoin="round"/>
</svg>
